<?xml version="1.0" encoding="utf-8"?>
<!-- Generator: Adobe Illustrator 15.0.0, SVG Export Plug-In . SVG Version: 6.00 Build 0)  -->
<!DOCTYPE svg PUBLIC "-//W3C//DTD SVG 1.1//EN" "http://www.w3.org/Graphics/SVG/1.1/DTD/svg11.dtd">
<svg version="1.1" id="Layer_1" xmlns="http://www.w3.org/2000/svg" xmlns:xlink="http://www.w3.org/1999/xlink" x="0px" y="0px"
	 width="42.52px" height="22.68px" viewBox="0 0 42.52 22.68" enable-background="new 0 0 42.52 22.68" xml:space="preserve">
<g>
	<g>
		<path fill="#00AFBC" d="M10.944,12.709c0.757,0,1.369-0.612,1.369-1.369c0-0.756-0.612-1.368-1.369-1.368
			c-0.756,0-1.368,0.612-1.368,1.368C9.576,12.097,10.188,12.709,10.944,12.709 M10.944,5.177c3.075,0,5.623,2.252,6.087,5.197
			h8.461c0.084-0.456,0.463-0.802,0.919-0.802c0.455,0,0.834,0.346,0.918,0.802h9.442c0.533,0,0.967,0.433,0.967,0.966
			s-0.434,0.967-0.967,0.967h-1.308v2.951c0,0.424-0.343,0.768-0.768,0.768h-1.045v-1.826h-1.207v1.826h-1.034
			c-0.425,0-0.769-0.344-0.769-0.768v-2.951h-3.313c-0.084,0.456-0.464,0.8-0.918,0.8c-0.456,0-0.835-0.344-0.919-0.8H17.03
			c-0.464,2.944-3.012,5.196-6.087,5.196c-3.403,0-6.163-2.76-6.163-6.163S7.541,5.177,10.944,5.177"/>
	</g>
</g>
</svg>
