<?xml version="1.0" encoding="utf-8"?>
<!-- Generator: Adobe Illustrator 15.0.0, SVG Export Plug-In . SVG Version: 6.00 Build 0)  -->
<!DOCTYPE svg PUBLIC "-//W3C//DTD SVG 1.1//EN" "http://www.w3.org/Graphics/SVG/1.1/DTD/svg11.dtd">
<svg version="1.1" id="Layer_1" xmlns="http://www.w3.org/2000/svg" xmlns:xlink="http://www.w3.org/1999/xlink" x="0px" y="0px"
	 width="538.58px" height="99.21px" viewBox="0 0 538.58 99.21" enable-background="new 0 0 538.58 99.21" xml:space="preserve">
<rect x="125.15" y="59.339" fill="#00AFBC" width="70.866" height="22.677"/>
<rect x="157.221" y="55.979" transform="matrix(0.7071 -0.7071 0.7071 0.7071 5.0752 130.9422)" fill="#00AFBC" width="6.732" height="6.732"/>
<rect x="34.11" y="11.492" fill="#00AFBC" width="70.866" height="22.677"/>
<rect x="66.177" y="30.804" transform="matrix(0.7071 0.7071 -0.7071 0.7071 44.5344 -39.1674)" fill="#00AFBC" width="6.731" height="6.732"/>
<g>
	<g>
		<g>
			<rect x="15.366" y="45.583" fill="#EE3F6B" width="501.654" height="2"/>
		</g>
	</g>
	<g>
		<path fill="#EE3F6B" d="M15.366,49.949c1.859,0,3.366-1.507,3.366-3.366s-1.507-3.366-3.366-3.366
			c-1.859,0-3.366,1.508-3.366,3.366S13.507,49.949,15.366,49.949"/>
	</g>
</g>
<polygon fill="#EE3F6B" points="512.715,46.583 511.807,51.344 522.236,46.583 511.807,41.823 "/>
<g>
	<path fill="#FFFFFF" d="M53.493,26.205h2.092v-6.597L53.438,20.1v-1.791l2.133-0.492h2.256v8.388h2.092v1.818h-6.426V26.205z"/>
	<path fill="#FFFFFF" d="M62.038,27.797V25.91c0.378,0.196,0.739,0.343,1.083,0.441c0.344,0.098,0.685,0.147,1.022,0.147
		c0.707,0,1.257-0.218,1.651-0.653c0.394-0.435,0.625-1.081,0.694-1.938c-0.278,0.228-0.575,0.399-0.892,0.513
		c-0.317,0.114-0.66,0.171-1.029,0.171c-0.939,0-1.696-0.304-2.273-0.913c-0.577-0.609-0.865-1.409-0.865-2.403
		c0-1.098,0.321-1.978,0.964-2.639c0.643-0.661,1.504-0.991,2.584-0.991c1.199,0,2.126,0.449,2.782,1.347
		c0.656,0.898,0.984,2.167,0.984,3.808c0,1.686-0.384,3.011-1.152,3.975c-0.768,0.964-1.819,1.446-3.155,1.446
		c-0.433,0-0.847-0.035-1.241-0.106C62.801,28.044,62.416,27.938,62.038,27.797z M64.963,22.882c0.415,0,0.727-0.149,0.937-0.448
		s0.314-0.746,0.314-1.343c0-0.592-0.105-1.039-0.314-1.34c-0.209-0.301-0.522-0.451-0.937-0.451s-0.727,0.15-0.937,0.451
		c-0.21,0.301-0.314,0.748-0.314,1.34c0,0.597,0.105,1.045,0.314,1.343S64.549,22.882,64.963,22.882z"/>
	<path fill="#FFFFFF" d="M73.789,17.817h2.632v6.439h1.312v1.907H76.42v1.859h-2.235v-1.859h-4.074v-2.256L73.789,17.817z
		 M74.185,19.984l-2.598,4.272h2.598V19.984z"/>
	<path fill="#FFFFFF" d="M80.966,22.588c-0.561-0.187-0.982-0.474-1.265-0.861c-0.283-0.387-0.424-0.871-0.424-1.449
		c0-0.861,0.29-1.518,0.868-1.969s1.429-0.677,2.55-0.677c1.112,0,1.956,0.225,2.533,0.673c0.577,0.448,0.865,1.106,0.865,1.972
		c0,0.579-0.143,1.062-0.427,1.449c-0.284,0.387-0.705,0.674-1.261,0.861c0.625,0.191,1.095,0.502,1.412,0.933
		s0.475,0.974,0.475,1.63c0,1.012-0.302,1.776-0.906,2.293s-1.5,0.776-2.69,0.776c-1.194,0-2.096-0.259-2.707-0.776
		c-0.611-0.517-0.916-1.282-0.916-2.293c0-0.656,0.16-1.2,0.479-1.63C79.871,23.09,80.342,22.78,80.966,22.588z M82.696,23.457
		c-0.447,0-0.789,0.134-1.025,0.403c-0.236,0.269-0.355,0.654-0.355,1.155s0.119,0.885,0.355,1.152c0.236,0.267,0.579,0.4,1.025,0.4
		c0.438,0,0.773-0.133,1.008-0.4s0.352-0.65,0.352-1.152c0-0.506-0.117-0.892-0.352-1.159S83.133,23.457,82.696,23.457z
		 M81.52,20.544c0,0.406,0.102,0.718,0.304,0.937c0.202,0.219,0.493,0.328,0.872,0.328c0.369,0,0.654-0.109,0.854-0.328
		c0.2-0.219,0.301-0.531,0.301-0.937c0-0.406-0.1-0.717-0.301-0.933c-0.201-0.216-0.485-0.325-0.854-0.325
		c-0.378,0-0.669,0.109-0.872,0.328C81.621,19.833,81.52,20.144,81.52,20.544z"/>
</g>
<g>
	<path fill="#FFFFFF" d="M144.535,73.833h2.092v-6.598l-2.146,0.492v-1.791l2.133-0.492h2.256v8.389h2.092v1.817h-6.426
		L144.535,73.833L144.535,73.833z"/>
	<path fill="#FFFFFF" d="M153.08,75.425v-1.887c0.378,0.196,0.739,0.344,1.083,0.44c0.344,0.099,0.685,0.147,1.022,0.147
		c0.707,0,1.257-0.219,1.651-0.653s0.625-1.081,0.694-1.938c-0.278,0.229-0.575,0.398-0.892,0.514
		c-0.317,0.115-0.66,0.171-1.029,0.171c-0.939,0-1.696-0.306-2.273-0.912c-0.577-0.609-0.865-1.41-0.865-2.403
		c0-1.099,0.321-1.979,0.964-2.639c0.643-0.661,1.504-0.991,2.584-0.991c1.199,0,2.126,0.449,2.782,1.347
		c0.656,0.898,0.984,2.168,0.984,3.809c0,1.688-0.384,3.012-1.152,3.975c-0.768,0.965-1.819,1.446-3.155,1.446
		c-0.433,0-0.847-0.035-1.241-0.106C153.844,75.673,153.458,75.567,153.08,75.425z M156.005,70.511c0.415,0,0.727-0.149,0.937-0.447
		c0.209-0.299,0.314-0.747,0.314-1.344c0-0.594-0.105-1.039-0.314-1.34s-0.522-0.451-0.937-0.451s-0.727,0.15-0.937,0.451
		s-0.314,0.746-0.314,1.34c0,0.597,0.105,1.045,0.314,1.344C155.278,70.361,155.591,70.511,156.005,70.511z"/>
	<path fill="#FFFFFF" d="M161.918,65.445h5.893v1.936h-3.999v1.578c0.178-0.055,0.358-0.097,0.54-0.125
		c0.182-0.03,0.372-0.045,0.567-0.045c1.121,0,1.994,0.311,2.618,0.934c0.625,0.621,0.937,1.488,0.937,2.601
		c0,1.103-0.339,1.968-1.019,2.591c-0.68,0.625-1.623,0.938-2.83,0.938c-0.52,0-1.035-0.057-1.545-0.167
		c-0.51-0.112-1.019-0.282-1.524-0.511v-2.07c0.501,0.318,0.977,0.559,1.425,0.718c0.448,0.159,0.872,0.239,1.268,0.239
		c0.574,0,1.026-0.156,1.357-0.469c0.331-0.312,0.496-0.734,0.496-1.269c0-0.538-0.165-0.962-0.496-1.271s-0.783-0.465-1.357-0.465
		c-0.337,0-0.7,0.049-1.087,0.146c-0.387,0.098-0.802,0.249-1.244,0.454V65.445z"/>
	<path fill="#FFFFFF" d="M175.221,70.148c0.615,0.178,1.084,0.486,1.408,0.928c0.324,0.438,0.485,0.998,0.485,1.678
		c0,1.012-0.349,1.781-1.046,2.307c-0.697,0.527-1.716,0.79-3.056,0.79c-0.469,0-0.941-0.042-1.415-0.126
		c-0.474-0.085-0.943-0.211-1.408-0.38v-2.03c0.442,0.246,0.882,0.432,1.319,0.557c0.438,0.127,0.868,0.188,1.292,0.188
		c0.629,0,1.11-0.121,1.442-0.362c0.332-0.24,0.499-0.588,0.499-1.039c0-0.465-0.171-0.816-0.513-1.057
		c-0.342-0.238-0.848-0.357-1.518-0.357h-0.943v-1.695h0.998c0.592,0,1.035-0.104,1.326-0.312c0.292-0.207,0.438-0.521,0.438-0.945
		c0-0.393-0.141-0.695-0.424-0.91c-0.283-0.213-0.684-0.32-1.203-0.32c-0.383,0-0.768,0.048-1.155,0.145
		c-0.387,0.096-0.775,0.236-1.162,0.424v-1.928c0.469-0.146,0.933-0.256,1.391-0.328c0.458-0.074,0.908-0.109,1.35-0.109
		c1.194,0,2.087,0.218,2.68,0.652c0.592,0.436,0.889,1.09,0.889,1.965c0,0.598-0.141,1.086-0.424,1.467
		C176.189,69.726,175.772,69.994,175.221,70.148z"/>
</g>
<g>
	<path fill="#00AFBC" d="M51.142,67.546h-1.564c-0.539-0.965-0.938-1.883-1.195-2.752c-0.257-0.869-0.387-1.73-0.387-2.586
		c0-0.856,0.13-1.723,0.39-2.6c0.26-0.877,0.657-1.794,1.192-2.751h1.564c-0.449,0.927-0.787,1.831-1.014,2.716
		s-0.34,1.76-0.34,2.622c0,0.863,0.112,1.738,0.337,2.625C50.35,65.708,50.689,66.617,51.142,67.546z"/>
	<path fill="#00AFBC" d="M52.994,57.216h2.033v5.244c0,0.723,0.106,1.238,0.319,1.55c0.213,0.311,0.56,0.466,1.04,0.466
		c0.484,0,0.833-0.155,1.046-0.466c0.213-0.312,0.319-0.827,0.319-1.55v-5.244h2.033v5.244c0,1.237-0.28,2.16-0.841,2.766
		s-1.413,0.908-2.558,0.908c-1.145,0-1.996-0.303-2.555-0.908s-0.838-1.527-0.838-2.766v-5.244H52.994z"/>
	<path fill="#00AFBC" d="M61.759,57.216h2.145c1.195,0,2.085,0.095,2.669,0.283c0.584,0.189,1.085,0.512,1.503,0.965
		c0.371,0.395,0.646,0.85,0.826,1.365c0.18,0.515,0.27,1.1,0.27,1.752c0,0.66-0.09,1.248-0.27,1.767
		c-0.18,0.519-0.455,0.974-0.826,1.368c-0.422,0.453-0.928,0.773-1.518,0.964c-0.59,0.19-1.475,0.284-2.654,0.284h-2.145V57.216z
		 M63.792,58.921v5.338h0.727c0.828,0,1.461-0.229,1.898-0.687c0.437-0.456,0.656-1.12,0.656-1.991c0-0.867-0.218-1.527-0.653-1.98
		s-1.069-0.68-1.901-0.68H63.792z"/>
	<path fill="#00AFBC" d="M70.724,57.216h2.033v3.334h2.994v-3.334h2.027v8.748h-2.027v-3.709h-2.994v3.709h-2.033V57.216z"/>
	<path fill="#00AFBC" d="M81.792,62.653v3.312h-2.033v-8.748h3.1c1.039,0,1.8,0.193,2.282,0.58s0.724,0.998,0.724,1.834
		c0,0.578-0.125,1.053-0.375,1.424s-0.629,0.645-1.137,0.82c0.277,0.069,0.526,0.229,0.747,0.478
		c0.221,0.249,0.442,0.624,0.665,1.128l1.102,2.484h-2.162l-0.955-2.174c-0.195-0.438-0.393-0.736-0.592-0.896
		c-0.199-0.16-0.463-0.24-0.791-0.24L81.792,62.653L81.792,62.653z M82.648,61.095c0.422,0,0.726-0.088,0.911-0.264
		c0.185-0.177,0.278-0.465,0.278-0.867c0-0.398-0.093-0.685-0.278-0.855s-0.489-0.258-0.911-0.258h-0.855v2.244H82.648z"/>
	<path fill="#00AFBC" d="M87.951,67.546c0.449-0.93,0.786-1.838,1.011-2.726c0.225-0.887,0.337-1.762,0.337-2.625
		c0-0.862-0.112-1.737-0.337-2.622s-0.562-1.789-1.011-2.716h1.564c0.535,0.957,0.932,1.874,1.189,2.751
		c0.257,0.877,0.387,1.743,0.387,2.6c0,0.855-0.128,1.717-0.384,2.586s-0.653,1.787-1.192,2.752H87.951z"/>
</g>
<g>
	<path fill="#6D6E70" d="M26.852,72.132h0.715v3.543c0,0.625,0.102,1.074,0.307,1.35s0.535,0.412,0.99,0.412
		c0.455,0,0.785-0.139,0.988-0.412s0.305-0.725,0.305-1.35v-3.543h0.715v3.641c0,0.762-0.169,1.335-0.508,1.723
		c-0.339,0.389-0.838,0.582-1.5,0.582c-0.664,0-1.166-0.193-1.504-0.582c-0.338-0.388-0.508-0.961-0.508-1.723V72.132z"/>
	<path fill="#6D6E70" d="M35.45,75.323v2.642h-0.648v-2.617c0-0.414-0.073-0.725-0.219-0.93c-0.146-0.207-0.363-0.31-0.652-0.31
		c-0.349,0-0.625,0.124-0.826,0.371s-0.303,0.585-0.303,1.013v2.473H32.15v-4.375h0.652v0.68c0.154-0.264,0.335-0.46,0.545-0.59
		c0.21-0.131,0.453-0.195,0.729-0.195c0.451,0,0.792,0.155,1.025,0.467C35.334,74.263,35.45,74.719,35.45,75.323z"/>
	<path fill="#6D6E70" d="M36.739,71.886h0.645v0.91h-0.645V71.886z M36.739,73.589h0.645v4.375h-0.645V73.589z"/>
	<path fill="#6D6E70" d="M38.274,73.589h0.684l1.23,3.672l1.23-3.672h0.688l-1.477,4.375H39.75L38.274,73.589z"/>
	<path fill="#6D6E70" d="M46.364,75.597v0.352h-2.977c0.029,0.495,0.164,0.872,0.404,1.131c0.24,0.26,0.575,0.39,1.002,0.39
		c0.25,0,0.492-0.034,0.725-0.103s0.464-0.169,0.693-0.305v0.68c-0.232,0.109-0.469,0.192-0.713,0.25
		c-0.244,0.059-0.49,0.086-0.74,0.086c-0.63,0-1.128-0.203-1.494-0.608c-0.366-0.406-0.549-0.956-0.549-1.648
		c0-0.716,0.174-1.284,0.521-1.704c0.347-0.422,0.817-0.632,1.408-0.632c0.529,0,0.947,0.188,1.256,0.568
		C46.209,74.432,46.364,74.945,46.364,75.597z M45.715,75.386c-0.005-0.395-0.104-0.707-0.297-0.941s-0.448-0.352-0.766-0.352
		c-0.362,0-0.652,0.113-0.869,0.34c-0.217,0.227-0.342,0.546-0.373,0.957L45.715,75.386z"/>
	<path fill="#6D6E70" d="M49.708,74.261c-0.073-0.047-0.152-0.081-0.238-0.104c-0.086-0.023-0.18-0.033-0.281-0.033
		c-0.367,0-0.648,0.131-0.844,0.396c-0.196,0.265-0.293,0.644-0.293,1.14v2.305H47.4v-4.375h0.652v0.68
		c0.135-0.266,0.312-0.463,0.531-0.592c0.219-0.129,0.483-0.193,0.793-0.193c0.044,0,0.094,0.003,0.148,0.01
		c0.054,0.008,0.115,0.018,0.18,0.029L49.708,74.261z"/>
	<path fill="#6D6E70" d="M52.891,73.718v0.68c-0.182-0.104-0.372-0.184-0.568-0.234c-0.196-0.051-0.4-0.078-0.611-0.078
		c-0.32,0-0.561,0.056-0.723,0.164c-0.162,0.109-0.242,0.273-0.242,0.492c0,0.168,0.058,0.299,0.174,0.394
		c0.116,0.095,0.347,0.186,0.693,0.271l0.219,0.055c0.461,0.109,0.788,0.265,0.98,0.463c0.192,0.199,0.289,0.479,0.289,0.834
		c0,0.406-0.145,0.729-0.434,0.966s-0.686,0.354-1.191,0.354c-0.211,0-0.431-0.021-0.66-0.067s-0.47-0.114-0.723-0.205v-0.742
		c0.24,0.138,0.475,0.241,0.707,0.312c0.232,0.069,0.461,0.104,0.688,0.104c0.305,0,0.539-0.059,0.703-0.174
		c0.164-0.116,0.246-0.279,0.246-0.49c0-0.195-0.059-0.345-0.178-0.449c-0.119-0.104-0.378-0.203-0.779-0.301l-0.223-0.059
		c-0.401-0.094-0.691-0.237-0.869-0.433c-0.178-0.194-0.268-0.46-0.268-0.799c0-0.411,0.131-0.729,0.395-0.953
		c0.264-0.224,0.635-0.336,1.117-0.336c0.24,0,0.465,0.021,0.676,0.06S52.714,73.64,52.891,73.718z"/>
	<path fill="#6D6E70" d="M57.211,75.468v2.496h-0.648V77.3c-0.146,0.266-0.329,0.462-0.549,0.588
		c-0.22,0.126-0.49,0.189-0.811,0.189c-0.404,0-0.724-0.127-0.961-0.377c-0.237-0.252-0.355-0.589-0.355-1.011
		c0-0.492,0.148-0.862,0.443-1.112s0.738-0.375,1.326-0.375h0.906v-0.07c0-0.332-0.098-0.588-0.293-0.769s-0.47-0.271-0.824-0.271
		c-0.224,0-0.443,0.029-0.656,0.09s-0.419,0.148-0.617,0.27v-0.664c0.237-0.102,0.467-0.178,0.689-0.229
		c0.222-0.051,0.439-0.076,0.65-0.076c0.57,0,0.996,0.164,1.277,0.492C57.069,74.304,57.211,74.8,57.211,75.468z M55.922,75.765
		c-0.523,0-0.886,0.066-1.088,0.199s-0.303,0.358-0.303,0.68c0,0.255,0.076,0.458,0.227,0.607c0.151,0.148,0.357,0.225,0.617,0.225
		c0.359,0,0.647-0.143,0.863-0.424c0.216-0.282,0.324-0.658,0.324-1.127v-0.16H55.922L55.922,75.765z"/>
	<path fill="#6D6E70" d="M58.543,71.886h0.645v6.078h-0.645V71.886z"/>
	<path fill="#6D6E70" d="M62.856,72.132h1.457c1.018,0,1.765,0.234,2.24,0.705c0.475,0.47,0.713,1.205,0.713,2.205
		c0,1.004-0.239,1.742-0.717,2.215c-0.478,0.472-1.223,0.707-2.236,0.707h-1.457V72.132L62.856,72.132z M63.567,72.78v4.535h0.855
		c0.724,0,1.254-0.183,1.592-0.547c0.338-0.364,0.506-0.94,0.506-1.728c0-0.78-0.168-1.354-0.506-1.717
		c-0.338-0.363-0.868-0.545-1.592-0.545L63.567,72.78L63.567,72.78z"/>
	<path fill="#6D6E70" d="M71.739,75.597v0.352h-2.977c0.029,0.495,0.164,0.872,0.404,1.131c0.24,0.26,0.575,0.39,1.002,0.39
		c0.25,0,0.492-0.034,0.725-0.103s0.464-0.169,0.693-0.305v0.68c-0.232,0.109-0.469,0.192-0.713,0.25
		c-0.244,0.059-0.49,0.086-0.74,0.086c-0.63,0-1.128-0.203-1.494-0.608c-0.366-0.406-0.549-0.956-0.549-1.648
		c0-0.716,0.174-1.284,0.521-1.704c0.347-0.422,0.817-0.632,1.408-0.632c0.529,0,0.947,0.188,1.256,0.568
		C71.584,74.432,71.739,74.945,71.739,75.597z M71.09,75.386c-0.005-0.395-0.104-0.707-0.297-0.941s-0.448-0.352-0.766-0.352
		c-0.362,0-0.652,0.113-0.869,0.34c-0.217,0.227-0.342,0.546-0.373,0.957L71.09,75.386z"/>
	<path fill="#6D6E70" d="M75.633,73.757v0.672c-0.182-0.112-0.365-0.196-0.549-0.252c-0.184-0.057-0.369-0.084-0.557-0.084
		c-0.422,0-0.749,0.146-0.98,0.443c-0.231,0.295-0.347,0.709-0.347,1.243s0.116,0.948,0.348,1.244s0.559,0.442,0.98,0.442
		c0.188,0,0.373-0.027,0.557-0.084c0.184-0.055,0.367-0.139,0.549-0.252v0.664c-0.18,0.095-0.367,0.164-0.561,0.211
		c-0.194,0.048-0.399,0.07-0.615,0.07c-0.594,0-1.065-0.207-1.414-0.621s-0.523-0.973-0.523-1.676c0-0.714,0.176-1.273,0.529-1.684
		s0.835-0.613,1.447-0.613c0.201,0,0.396,0.021,0.586,0.068C75.273,73.596,75.456,73.666,75.633,73.757z"/>
	<path fill="#6D6E70" d="M76.758,71.886h0.645v6.078h-0.645V71.886z"/>
	<path fill="#6D6E70" d="M81.836,75.468v2.496h-0.648V77.3c-0.146,0.266-0.329,0.462-0.549,0.588
		c-0.22,0.126-0.49,0.189-0.811,0.189c-0.404,0-0.724-0.127-0.961-0.377c-0.237-0.252-0.355-0.589-0.355-1.011
		c0-0.492,0.148-0.862,0.443-1.112s0.738-0.375,1.326-0.375h0.906v-0.07c0-0.332-0.098-0.588-0.293-0.769s-0.47-0.271-0.824-0.271
		c-0.224,0-0.443,0.029-0.656,0.09s-0.419,0.148-0.617,0.27v-0.664c0.237-0.102,0.467-0.178,0.689-0.229
		c0.222-0.051,0.439-0.076,0.65-0.076c0.57,0,0.996,0.164,1.277,0.492C81.694,74.304,81.836,74.8,81.836,75.468z M80.547,75.765
		c-0.523,0-0.886,0.066-1.088,0.199s-0.303,0.358-0.303,0.68c0,0.255,0.076,0.458,0.227,0.607C79.534,77.4,79.74,77.476,80,77.476
		c0.359,0,0.647-0.143,0.863-0.424c0.216-0.282,0.324-0.658,0.324-1.127v-0.16H80.547L80.547,75.765z"/>
	<path fill="#6D6E70" d="M85.45,74.261c-0.073-0.047-0.152-0.081-0.238-0.104c-0.086-0.023-0.18-0.033-0.281-0.033
		c-0.367,0-0.648,0.131-0.844,0.396c-0.196,0.265-0.293,0.644-0.293,1.14v2.305h-0.652v-4.375h0.652v0.68
		c0.135-0.266,0.312-0.463,0.531-0.592c0.219-0.129,0.483-0.193,0.793-0.193c0.044,0,0.094,0.003,0.148,0.01
		c0.054,0.008,0.115,0.018,0.18,0.029L85.45,74.261z"/>
	<path fill="#6D6E70" d="M89.204,75.468v2.496h-0.648V77.3c-0.146,0.266-0.329,0.462-0.549,0.588
		c-0.22,0.126-0.49,0.189-0.811,0.189c-0.404,0-0.724-0.127-0.961-0.377c-0.237-0.252-0.355-0.589-0.355-1.011
		c0-0.492,0.148-0.862,0.443-1.112c0.295-0.25,0.738-0.375,1.326-0.375h0.906v-0.07c0-0.332-0.098-0.588-0.293-0.769
		c-0.195-0.181-0.47-0.271-0.824-0.271c-0.224,0-0.443,0.029-0.656,0.09c-0.213,0.061-0.419,0.148-0.617,0.27v-0.664
		c0.237-0.102,0.467-0.178,0.689-0.229s0.439-0.076,0.65-0.076c0.57,0,0.996,0.164,1.277,0.492
		C89.062,74.304,89.204,74.8,89.204,75.468z M87.915,75.765c-0.523,0-0.886,0.066-1.088,0.199c-0.202,0.133-0.303,0.358-0.303,0.68
		c0,0.255,0.076,0.458,0.227,0.607c0.151,0.148,0.357,0.225,0.617,0.225c0.359,0,0.647-0.143,0.863-0.424
		c0.216-0.282,0.324-0.658,0.324-1.127v-0.16H87.915L87.915,75.765z"/>
	<path fill="#6D6E70" d="M91.176,72.347v1.242h1.332v0.559h-1.332v2.375c0,0.355,0.043,0.586,0.131,0.688
		c0.088,0.103,0.265,0.152,0.533,0.152h0.668v0.602H91.84c-0.498,0-0.841-0.104-1.031-0.311s-0.285-0.584-0.285-1.131v-2.375h-0.473
		v-0.559h0.473v-1.242H91.176L91.176,72.347z"/>
	<path fill="#6D6E70" d="M93.356,71.886H94v0.91h-0.645L93.356,71.886L93.356,71.886z M93.356,73.589H94v4.375h-0.645L93.356,73.589
		L93.356,73.589z"/>
	<path fill="#6D6E70" d="M96.879,73.483c0.562,0,1.004,0.203,1.326,0.608c0.322,0.406,0.482,0.97,0.482,1.688
		c0,0.716-0.161,1.278-0.482,1.687c-0.321,0.408-0.764,0.611-1.326,0.611c-0.565,0-1.007-0.205-1.326-0.611
		c-0.319-0.407-0.479-0.971-0.479-1.687c0-0.719,0.16-1.28,0.479-1.688C95.872,73.685,96.314,73.483,96.879,73.483z M96.879,74.093
		c-0.346,0-0.621,0.15-0.822,0.451c-0.201,0.301-0.303,0.713-0.303,1.235c0,0.523,0.1,0.937,0.301,1.236
		c0.201,0.3,0.475,0.45,0.824,0.45c0.346,0,0.62-0.15,0.82-0.452C97.899,76.712,98,76.3,98,75.78c0-0.519-0.1-0.929-0.301-1.231
		C97.498,74.246,97.226,74.093,96.879,74.093z"/>
	<path fill="#6D6E70" d="M103.032,75.323v2.642h-0.648v-2.617c0-0.414-0.073-0.725-0.219-0.93c-0.146-0.207-0.363-0.31-0.652-0.31
		c-0.349,0-0.625,0.124-0.826,0.371s-0.303,0.585-0.303,1.013v2.473h-0.652v-4.375h0.652v0.68c0.154-0.264,0.335-0.46,0.545-0.59
		c0.21-0.131,0.453-0.195,0.729-0.195c0.451,0,0.792,0.155,1.025,0.467C102.916,74.263,103.032,74.719,103.032,75.323z"/>
	<path fill="#6D6E70" d="M108.129,73.483c0.562,0,1.004,0.203,1.326,0.608c0.322,0.406,0.482,0.97,0.482,1.688
		c0,0.716-0.161,1.278-0.482,1.687c-0.321,0.408-0.764,0.611-1.326,0.611c-0.565,0-1.007-0.205-1.326-0.611
		c-0.319-0.407-0.479-0.971-0.479-1.687c0-0.719,0.16-1.28,0.479-1.688C107.122,73.685,107.564,73.483,108.129,73.483z
		 M108.129,74.093c-0.346,0-0.621,0.15-0.822,0.451c-0.201,0.301-0.303,0.713-0.303,1.235c0,0.523,0.1,0.937,0.301,1.236
		c0.201,0.3,0.475,0.45,0.824,0.45c0.346,0,0.62-0.15,0.82-0.452c0.2-0.302,0.301-0.714,0.301-1.234c0-0.519-0.1-0.929-0.301-1.231
		C108.748,74.246,108.476,74.093,108.129,74.093z"/>
	<path fill="#6D6E70" d="M113,71.886v0.598h-0.617c-0.234,0-0.396,0.053-0.486,0.156s-0.135,0.292-0.135,0.562v0.387h1.066v0.559
		h-1.066v3.816h-0.648v-3.816h-0.621v-0.559h0.621v-0.305c0-0.488,0.102-0.843,0.305-1.064c0.203-0.223,0.526-0.334,0.969-0.334H113
		z"/>
</g>
<g>
	<path fill="#6D6E70" d="M44.774,80.132h0.711v2.391h2.578v-2.391h0.711v5.832h-0.711v-2.777h-2.578v2.777h-0.711V80.132z"/>
	<path fill="#6D6E70" d="M50.094,84.237v-2.647h0.645v2.621c0,0.414,0.073,0.725,0.219,0.932s0.363,0.311,0.652,0.311
		c0.352,0,0.628-0.123,0.83-0.371c0.202-0.246,0.303-0.584,0.303-1.012v-2.48h0.648v4.375h-0.648v-0.672
		c-0.156,0.267-0.338,0.463-0.545,0.593c-0.207,0.129-0.449,0.192-0.725,0.192c-0.451,0-0.793-0.156-1.027-0.469
		C50.212,85.296,50.094,84.839,50.094,84.237z"/>
	<path fill="#6D6E70" d="M57.786,82.429c0.164-0.323,0.358-0.562,0.582-0.715c0.224-0.153,0.488-0.23,0.793-0.23
		c0.412,0,0.729,0.159,0.951,0.479c0.222,0.32,0.334,0.772,0.334,1.361v2.641h-0.652v-2.616c0-0.419-0.066-0.729-0.199-0.935
		c-0.133-0.203-0.337-0.305-0.613-0.305c-0.333,0-0.598,0.124-0.793,0.371s-0.293,0.585-0.293,1.012v2.473h-0.648v-2.616
		c0-0.422-0.067-0.733-0.201-0.937c-0.134-0.203-0.34-0.303-0.619-0.303c-0.331,0-0.593,0.124-0.787,0.373
		c-0.194,0.249-0.291,0.585-0.291,1.01v2.473h-0.652v-4.375h0.652v0.681c0.148-0.269,0.326-0.466,0.531-0.594
		s0.451-0.191,0.734-0.191c0.287,0,0.53,0.081,0.73,0.242C57.545,81.888,57.692,82.121,57.786,82.429z"/>
	<path fill="#6D6E70" d="M64.813,83.468v2.496h-0.648V85.3c-0.146,0.266-0.329,0.462-0.549,0.588
		c-0.22,0.126-0.49,0.189-0.811,0.189c-0.404,0-0.724-0.127-0.961-0.377c-0.237-0.252-0.355-0.589-0.355-1.011
		c0-0.492,0.148-0.862,0.443-1.112s0.738-0.375,1.326-0.375h0.906v-0.07c0-0.332-0.098-0.588-0.293-0.769
		c-0.195-0.181-0.47-0.271-0.824-0.271c-0.224,0-0.443,0.029-0.656,0.09s-0.419,0.148-0.617,0.27v-0.664
		c0.237-0.102,0.467-0.178,0.689-0.229c0.222-0.051,0.439-0.076,0.65-0.076c0.57,0,0.996,0.164,1.277,0.492
		C64.671,82.304,64.813,82.8,64.813,83.468z M63.524,83.765c-0.523,0-0.886,0.066-1.088,0.199s-0.303,0.358-0.303,0.68
		c0,0.255,0.076,0.458,0.227,0.607c0.151,0.148,0.357,0.225,0.617,0.225c0.359,0,0.647-0.143,0.863-0.424
		c0.216-0.282,0.324-0.658,0.324-1.127v-0.16H63.524L63.524,83.765z"/>
	<path fill="#6D6E70" d="M69.418,83.323v2.642H68.77v-2.617c0-0.414-0.073-0.725-0.219-0.93c-0.146-0.207-0.363-0.31-0.652-0.31
		c-0.349,0-0.625,0.124-0.826,0.371c-0.201,0.247-0.303,0.585-0.303,1.013v2.473h-0.652v-4.375h0.652v0.68
		c0.154-0.264,0.335-0.46,0.545-0.59c0.21-0.131,0.453-0.195,0.729-0.195c0.451,0,0.792,0.155,1.025,0.467
		C69.302,82.263,69.418,82.719,69.418,83.323z"/>
	<path fill="#6D6E70" d="M75.508,83.229c0.154,0.058,0.302,0.181,0.445,0.367s0.288,0.444,0.434,0.772l0.723,1.594h-0.766
		l-0.672-1.496c-0.172-0.391-0.339-0.648-0.502-0.776s-0.385-0.19-0.666-0.19h-0.773v2.465H73.02v-5.832h1.602
		c0.602,0,1.049,0.14,1.344,0.418c0.295,0.277,0.441,0.699,0.441,1.262c0,0.367-0.076,0.672-0.229,0.914
		C76.025,82.968,75.803,83.136,75.508,83.229z M73.731,80.78v2.07h0.891c0.344,0,0.603-0.088,0.777-0.265
		c0.174-0.176,0.262-0.435,0.262-0.774s-0.087-0.599-0.262-0.771c-0.175-0.172-0.434-0.261-0.777-0.261H73.731z"/>
	<path fill="#6D6E70" d="M77.993,79.886h0.645v0.91h-0.645V79.886z M77.993,81.589h0.645v4.375h-0.645V81.589z"/>
	<path fill="#6D6E70" d="M83.231,85.421c0,0.744-0.149,1.299-0.447,1.662c-0.298,0.362-0.754,0.545-1.369,0.545
		c-0.227,0-0.441-0.02-0.643-0.058s-0.398-0.096-0.588-0.174v-0.699c0.19,0.114,0.377,0.199,0.562,0.255
		c0.185,0.055,0.374,0.082,0.566,0.082c0.424,0,0.742-0.123,0.953-0.369s0.316-0.619,0.316-1.115v-0.355
		c-0.133,0.258-0.303,0.45-0.512,0.578s-0.458,0.191-0.75,0.191c-0.484,0-0.874-0.204-1.168-0.613s-0.441-0.95-0.441-1.625
		c0-0.678,0.147-1.221,0.441-1.629c0.294-0.409,0.684-0.613,1.168-0.613c0.292,0,0.542,0.062,0.75,0.191
		c0.208,0.128,0.379,0.32,0.512,0.578v-0.664h0.648v3.832H83.231z M82.583,83.726c0-0.521-0.097-0.926-0.291-1.211
		c-0.194-0.286-0.465-0.43-0.814-0.43c-0.346,0-0.616,0.144-0.809,0.43c-0.193,0.285-0.289,0.689-0.289,1.211
		c0,0.52,0.096,0.921,0.289,1.207s0.462,0.43,0.809,0.43c0.349,0,0.621-0.144,0.814-0.43S82.583,84.244,82.583,83.726z"/>
	<path fill="#6D6E70" d="M87.836,83.323v2.642h-0.648v-2.617c0-0.414-0.073-0.725-0.219-0.93c-0.146-0.207-0.363-0.31-0.652-0.31
		c-0.349,0-0.625,0.124-0.826,0.371c-0.201,0.247-0.303,0.585-0.303,1.013v2.473h-0.652v-6.078h0.652v2.383
		c0.154-0.264,0.335-0.46,0.545-0.59c0.21-0.131,0.453-0.195,0.729-0.195c0.451,0,0.792,0.155,1.025,0.467
		C87.72,82.263,87.836,82.719,87.836,83.323z"/>
	<path fill="#6D6E70" d="M89.766,80.347v1.242h1.332v0.559h-1.332v2.375c0,0.355,0.043,0.586,0.131,0.688
		c0.088,0.103,0.265,0.152,0.533,0.152h0.668v0.602H90.43c-0.498,0-0.841-0.104-1.031-0.311s-0.285-0.584-0.285-1.131v-2.375h-0.473
		v-0.559h0.473v-1.242H89.766L89.766,80.347z"/>
	<path fill="#6D6E70" d="M94.454,81.718v0.68c-0.182-0.104-0.372-0.184-0.568-0.234c-0.196-0.051-0.4-0.078-0.611-0.078
		c-0.32,0-0.561,0.056-0.723,0.164c-0.162,0.109-0.242,0.273-0.242,0.492c0,0.168,0.058,0.299,0.174,0.394
		c0.116,0.095,0.347,0.186,0.693,0.271l0.219,0.055c0.461,0.109,0.788,0.265,0.98,0.463c0.192,0.199,0.289,0.479,0.289,0.834
		c0,0.406-0.145,0.729-0.434,0.966s-0.686,0.354-1.191,0.354c-0.211,0-0.431-0.021-0.66-0.067s-0.47-0.114-0.723-0.205v-0.742
		c0.24,0.138,0.475,0.241,0.707,0.312c0.232,0.069,0.461,0.104,0.688,0.104c0.305,0,0.539-0.059,0.703-0.174
		C93.919,85.188,94,85.022,94,84.812c0-0.195-0.059-0.346-0.178-0.449c-0.119-0.104-0.378-0.203-0.779-0.301l-0.223-0.059
		c-0.401-0.094-0.691-0.237-0.869-0.433c-0.178-0.194-0.268-0.46-0.268-0.799c0-0.411,0.131-0.729,0.395-0.953
		c0.264-0.224,0.635-0.336,1.117-0.336c0.24,0,0.465,0.021,0.676,0.06S94.276,81.64,94.454,81.718z"/>
</g>
<g>
	<g>
		<path fill="#00AFBC" d="M69.543,52.251c3.131,0,5.669-2.537,5.669-5.667s-2.538-5.67-5.669-5.67s-5.669,2.539-5.669,5.67
			C63.875,49.715,66.412,52.251,69.543,52.251"/>
	</g>
	<g>
		<path fill="#00AFBC" d="M160.583,52.251c3.131,0,5.669-2.537,5.669-5.667s-2.538-5.67-5.669-5.67s-5.669,2.539-5.669,5.67
			S157.452,52.251,160.583,52.251"/>
	</g>
</g>
<rect x="251.941" y="11.492" fill="#00AFBC" width="70.867" height="22.677"/>
<rect x="284.011" y="30.805" transform="matrix(0.7071 0.7071 -0.7071 0.7071 108.3221 -193.188)" fill="#00AFBC" width="6.731" height="6.733"/>
<g>
	<g>
		<path fill="#00AFBC" d="M287.374,52.251c3.131,0,5.669-2.537,5.669-5.667s-2.538-5.67-5.669-5.67s-5.669,2.539-5.669,5.67
			S284.243,52.251,287.374,52.251"/>
	</g>
</g>
<g>
	<path fill="#FFFFFF" d="M271.323,26.205h2.092v-6.597l-2.146,0.492v-1.791l2.133-0.492h2.257v8.388h2.092v1.818h-6.426
		L271.323,26.205L271.323,26.205z"/>
	<path fill="#FFFFFF" d="M279.868,27.797V25.91c0.378,0.196,0.738,0.343,1.083,0.441s0.687,0.147,1.022,0.147
		c0.705,0,1.256-0.218,1.649-0.653c0.396-0.435,0.626-1.081,0.694-1.938c-0.278,0.228-0.575,0.399-0.893,0.513
		c-0.316,0.114-0.66,0.171-1.029,0.171c-0.938,0-1.695-0.304-2.271-0.913c-0.577-0.608-0.865-1.409-0.865-2.403
		c0-1.098,0.321-1.978,0.965-2.639c0.643-0.661,1.504-0.991,2.584-0.991c1.197,0,2.125,0.449,2.781,1.347s0.984,2.167,0.984,3.808
		c0,1.686-0.385,3.011-1.151,3.975c-0.769,0.964-1.819,1.446-3.155,1.446c-0.434,0-0.847-0.035-1.24-0.106
		C280.633,28.044,280.246,27.938,279.868,27.797z M282.794,22.882c0.415,0,0.727-0.149,0.938-0.448
		c0.209-0.299,0.313-0.746,0.313-1.343c0-0.592-0.104-1.039-0.313-1.34c-0.211-0.301-0.521-0.451-0.938-0.451
		s-0.729,0.15-0.938,0.451c-0.209,0.301-0.313,0.748-0.313,1.34c0,0.597,0.104,1.045,0.313,1.343S282.379,22.882,282.794,22.882z"/>
	<path fill="#FFFFFF" d="M294.858,18.083v1.887c-0.387-0.205-0.752-0.356-1.096-0.455c-0.346-0.098-0.682-0.147-1.01-0.147
		c-0.706,0-1.257,0.218-1.65,0.653c-0.395,0.435-0.623,1.081-0.688,1.938c0.27-0.223,0.562-0.391,0.878-0.502
		c0.317-0.112,0.66-0.167,1.028-0.167c0.943,0,1.703,0.305,2.279,0.916c0.577,0.611,0.865,1.411,0.865,2.399
		c0,1.094-0.322,1.97-0.967,2.628c-0.646,0.659-1.51,0.988-2.596,0.988c-1.193,0-2.117-0.448-2.771-1.343
		c-0.652-0.896-0.98-2.166-0.98-3.811c0-1.686,0.384-3.011,1.148-3.975c0.766-0.964,1.812-1.446,3.145-1.446
		c0.425,0,0.836,0.037,1.234,0.109C294.079,17.828,294.472,17.938,294.858,18.083z M291.935,22.985
		c-0.416,0-0.727,0.149-0.934,0.448c-0.208,0.298-0.312,0.746-0.312,1.343c0,0.597,0.104,1.045,0.312,1.343
		c0.207,0.298,0.518,0.448,0.934,0.448c0.418,0,0.731-0.149,0.939-0.448c0.207-0.298,0.311-0.746,0.311-1.343
		c0-0.597-0.104-1.045-0.311-1.343C292.666,23.134,292.353,22.985,291.935,22.985z"/>
	<path fill="#FFFFFF" d="M303.623,18.083v1.887c-0.388-0.205-0.753-0.356-1.097-0.455c-0.346-0.098-0.682-0.147-1.01-0.147
		c-0.705,0-1.257,0.218-1.65,0.653c-0.395,0.435-0.623,1.081-0.688,1.938c0.27-0.223,0.562-0.391,0.879-0.502
		c0.316-0.112,0.659-0.167,1.028-0.167c0.942,0,1.703,0.305,2.278,0.916c0.578,0.611,0.865,1.411,0.865,2.399
		c0,1.094-0.321,1.97-0.967,2.628c-0.646,0.659-1.51,0.988-2.595,0.988c-1.194,0-2.118-0.448-2.772-1.343
		c-0.652-0.896-0.979-2.166-0.979-3.811c0-1.686,0.383-3.011,1.147-3.975c0.766-0.964,1.813-1.446,3.146-1.446
		c0.424,0,0.835,0.037,1.233,0.109C302.843,17.828,303.235,17.938,303.623,18.083z M300.696,22.985
		c-0.414,0-0.725,0.149-0.932,0.448c-0.209,0.298-0.312,0.746-0.312,1.343c0,0.597,0.104,1.045,0.312,1.343
		c0.207,0.298,0.518,0.448,0.932,0.448c0.42,0,0.732-0.149,0.941-0.448c0.206-0.298,0.311-0.746,0.311-1.343
		c0-0.597-0.104-1.045-0.311-1.343C301.431,23.134,301.116,22.985,300.696,22.985z"/>
</g>
<rect x="429.402" y="59.339" fill="#00AFBC" width="70.864" height="22.677"/>
<rect x="461.472" y="55.97" transform="matrix(0.7071 -0.7071 0.7071 0.7071 94.191 346.0691)" fill="#00AFBC" width="6.731" height="6.732"/>
<g>
	<g>
		<path fill="#00AFBC" d="M464.835,52.251c3.131,0,5.669-2.537,5.669-5.667s-2.538-5.67-5.669-5.67s-5.669,2.539-5.669,5.67
			S461.704,52.251,464.835,52.251"/>
	</g>
</g>
<g>
	<path fill="#FFFFFF" d="M450.938,73.71h4.039v1.936h-6.672V73.71l3.351-3.287c0.301-0.301,0.522-0.596,0.666-0.883
		c0.145-0.287,0.216-0.586,0.216-0.896c0-0.479-0.146-0.863-0.436-1.155c-0.288-0.292-0.673-0.438-1.15-0.438
		c-0.369,0-0.773,0.088-1.214,0.263c-0.439,0.177-0.91,0.437-1.411,0.783v-2.242c0.533-0.196,1.061-0.347,1.583-0.446
		c0.521-0.104,1.033-0.154,1.534-0.154c1.099,0,1.951,0.269,2.56,0.807c0.609,0.538,0.913,1.287,0.913,2.249
		c0,0.556-0.129,1.073-0.386,1.556c-0.258,0.48-0.802,1.125-1.631,1.932L450.938,73.71z"/>
	<path fill="#FFFFFF" d="M464.233,70.553c0,1.69-0.328,2.995-0.984,3.913c-0.656,0.919-1.586,1.378-2.789,1.378
		c-1.212,0-2.146-0.459-2.803-1.378c-0.656-0.918-0.984-2.223-0.984-3.913c0-1.695,0.328-3.003,0.984-3.921s1.591-1.377,2.803-1.377
		c1.203,0,2.133,0.459,2.789,1.377S464.233,68.857,464.233,70.553z M461.868,70.532c0-1.276-0.108-2.175-0.324-2.696
		c-0.217-0.521-0.578-0.782-1.084-0.782c-0.511,0-0.874,0.261-1.09,0.782c-0.217,0.521-0.325,1.42-0.325,2.696
		c0,1.29,0.108,2.199,0.325,2.729c0.216,0.528,0.579,0.793,1.09,0.793c0.501,0,0.861-0.265,1.08-0.793
		S461.868,71.822,461.868,70.532z"/>
	<path fill="#FFFFFF" d="M472.997,70.553c0,1.69-0.328,2.995-0.984,3.913c-0.655,0.919-1.586,1.378-2.789,1.378
		c-1.212,0-2.146-0.459-2.803-1.378c-0.656-0.918-0.984-2.223-0.984-3.913c0-1.695,0.328-3.003,0.984-3.921s1.591-1.377,2.803-1.377
		c1.203,0,2.134,0.459,2.789,1.377C472.669,67.55,472.997,68.857,472.997,70.553z M470.632,70.532c0-1.276-0.107-2.175-0.324-2.696
		s-0.578-0.782-1.084-0.782c-0.511,0-0.874,0.261-1.09,0.782c-0.217,0.521-0.325,1.42-0.325,2.696c0,1.29,0.108,2.199,0.325,2.729
		c0.216,0.528,0.579,0.793,1.09,0.793c0.501,0,0.861-0.265,1.08-0.793S470.632,71.822,470.632,70.532z"/>
	<path fill="#FFFFFF" d="M474.856,75.419v-1.887c0.378,0.196,0.738,0.344,1.084,0.44c0.344,0.099,0.685,0.147,1.021,0.147
		c0.706,0,1.257-0.219,1.65-0.654c0.395-0.434,0.626-1.08,0.693-1.938c-0.277,0.229-0.575,0.398-0.892,0.514
		c-0.317,0.113-0.66,0.17-1.029,0.17c-0.938,0-1.695-0.305-2.272-0.912c-0.576-0.608-0.864-1.409-0.864-2.402
		c0-1.1,0.321-1.979,0.964-2.639c0.643-0.661,1.504-0.991,2.584-0.991c1.198,0,2.126,0.448,2.782,1.347s0.983,2.167,0.983,3.809
		c0,1.687-0.384,3.012-1.15,3.975c-0.77,0.965-1.82,1.446-3.155,1.446c-0.433,0-0.847-0.035-1.241-0.106
		C475.621,75.667,475.234,75.562,474.856,75.419z M477.782,70.505c0.415,0,0.727-0.149,0.937-0.447
		c0.21-0.299,0.314-0.747,0.314-1.344c0-0.594-0.104-1.039-0.314-1.34c-0.21-0.302-0.521-0.451-0.937-0.451
		s-0.728,0.149-0.938,0.451c-0.21,0.301-0.313,0.746-0.313,1.34c0,0.597,0.104,1.045,0.313,1.344
		C477.056,70.355,477.367,70.505,477.782,70.505z"/>
</g>
<g>
	<g>
		<g>
			<path fill="#00AFBC" d="M143.397,17.129h-1.564c-0.539-0.965-0.938-1.882-1.195-2.751c-0.257-0.869-0.387-1.731-0.387-2.587
				s0.13-1.722,0.39-2.599c0.26-0.877,0.657-1.794,1.192-2.751h1.564c-0.449,0.926-0.787,1.831-1.014,2.716
				c-0.227,0.885-0.34,1.759-0.34,2.622c0,0.863,0.112,1.738,0.337,2.625C142.605,15.291,142.944,16.199,143.397,17.129z"/>
			<path fill="#00AFBC" d="M145.249,6.799h5.479v1.705h-3.445v1.629h3.24v1.705h-3.24v2.004h3.562v1.705h-5.596V6.799z"/>
			<path fill="#00AFBC" d="M158.872,15.066c-0.375,0.215-0.765,0.377-1.169,0.486c-0.404,0.109-0.825,0.164-1.263,0.164
				c-1.312,0-2.352-0.407-3.117-1.222c-0.765-0.815-1.148-1.919-1.148-3.313c0-1.398,0.383-2.505,1.148-3.319
				c0.765-0.814,1.805-1.222,3.117-1.222c0.438,0,0.858,0.055,1.263,0.164c0.405,0.109,0.794,0.271,1.169,0.486v1.811
				c-0.379-0.285-0.751-0.494-1.116-0.627c-0.365-0.133-0.749-0.199-1.151-0.199c-0.727,0-1.297,0.258-1.711,0.773
				c-0.414,0.515-0.621,1.227-0.621,2.133c0,0.902,0.207,1.611,0.621,2.127s0.984,0.773,1.711,0.773
				c0.402,0,0.786-0.066,1.151-0.199c0.365-0.133,0.737-0.342,1.116-0.627V15.066z"/>
			<path fill="#00AFBC" d="M160.547,6.799h2.033v3.334h2.994V6.799h2.027v8.748h-2.027v-3.709h-2.994v3.709h-2.033V6.799z"/>
			<path fill="#00AFBC" d="M171.616,12.236v3.311h-2.033V6.799h3.1c1.039,0,1.8,0.193,2.282,0.58
				c0.482,0.387,0.724,0.998,0.724,1.834c0,0.578-0.125,1.053-0.375,1.424c-0.25,0.371-0.629,0.645-1.137,0.82
				c0.277,0.07,0.526,0.229,0.747,0.478c0.221,0.249,0.442,0.624,0.665,1.128l1.102,2.484h-2.162l-0.955-2.174
				c-0.195-0.438-0.393-0.736-0.592-0.896c-0.199-0.16-0.463-0.24-0.791-0.24L171.616,12.236L171.616,12.236z M172.471,10.678
				c0.422,0,0.726-0.088,0.911-0.264c0.185-0.176,0.278-0.465,0.278-0.867c0-0.398-0.093-0.684-0.278-0.855
				s-0.489-0.258-0.911-0.258h-0.855v2.244H172.471z"/>
			<path fill="#00AFBC" d="M177.774,17.129c0.449-0.93,0.786-1.838,1.011-2.725c0.225-0.887,0.337-1.762,0.337-2.625
				c0-0.863-0.112-1.737-0.337-2.622c-0.225-0.885-0.562-1.79-1.011-2.716h1.564c0.535,0.957,0.932,1.874,1.189,2.751
				c0.257,0.877,0.387,1.743,0.387,2.599s-0.128,1.718-0.384,2.587c-0.256,0.869-0.653,1.786-1.192,2.751H177.774z"/>
		</g>
	</g>
</g>
<g>
	<path fill="#6D6E70" d="M116.876,21.715h3.316v0.664h-2.605v1.727h2.5v0.664h-2.5v2.113h2.672v0.664h-3.383V21.715z"/>
	<path fill="#6D6E70" d="M121.329,25.82v-2.648h0.645v2.621c0,0.414,0.073,0.725,0.219,0.932s0.363,0.311,0.652,0.311
		c0.352,0,0.628-0.124,0.83-0.371c0.202-0.247,0.303-0.584,0.303-1.012v-2.48h0.648v4.375h-0.648v-0.672
		c-0.156,0.266-0.338,0.463-0.545,0.592c-0.207,0.129-0.449,0.193-0.725,0.193c-0.451,0-0.793-0.156-1.027-0.469
		C121.447,26.879,121.329,26.422,121.329,25.82z"/>
	<path fill="#6D6E70" d="M128.239,23.844c-0.073-0.047-0.152-0.082-0.238-0.104c-0.086-0.022-0.18-0.033-0.281-0.033
		c-0.367,0-0.648,0.132-0.844,0.396s-0.293,0.644-0.293,1.139v2.305h-0.652v-4.375h0.652v0.68c0.135-0.266,0.312-0.463,0.531-0.592
		c0.219-0.129,0.483-0.193,0.793-0.193c0.044,0,0.094,0.003,0.148,0.01c0.054,0.007,0.115,0.016,0.18,0.029L128.239,23.844z"/>
	<path fill="#6D6E70" d="M130.271,23.066c0.562,0,1.004,0.203,1.326,0.609c0.322,0.406,0.482,0.969,0.482,1.688
		c0,0.716-0.161,1.278-0.482,1.686c-0.321,0.408-0.764,0.611-1.326,0.611c-0.565,0-1.007-0.204-1.326-0.611
		c-0.319-0.407-0.479-0.969-0.479-1.686c0-0.719,0.16-1.281,0.479-1.688C129.264,23.268,129.706,23.066,130.271,23.066z
		 M130.271,23.676c-0.346,0-0.621,0.15-0.822,0.451c-0.201,0.301-0.303,0.713-0.303,1.236c0,0.523,0.1,0.936,0.301,1.236
		c0.201,0.3,0.475,0.451,0.824,0.451c0.346,0,0.62-0.151,0.82-0.453c0.2-0.302,0.301-0.713,0.301-1.234
		c0-0.518-0.1-0.929-0.301-1.232C130.89,23.828,130.617,23.676,130.271,23.676z"/>
	<path fill="#6D6E70" d="M133.774,26.891v2.32h-0.652v-6.039h0.652v0.664c0.135-0.26,0.307-0.454,0.514-0.58
		s0.455-0.189,0.744-0.189c0.479,0,0.868,0.211,1.166,0.633c0.298,0.422,0.447,0.977,0.447,1.664c0,0.687-0.149,1.242-0.447,1.664
		c-0.298,0.422-0.687,0.633-1.166,0.633c-0.289,0-0.537-0.063-0.744-0.189S133.91,27.151,133.774,26.891z M135.974,25.363
		c0-0.529-0.098-0.943-0.293-1.244c-0.195-0.301-0.463-0.451-0.805-0.451c-0.344,0-0.613,0.15-0.809,0.451
		c-0.196,0.301-0.293,0.715-0.293,1.244c0,0.529,0.098,0.943,0.293,1.244c0.195,0.301,0.465,0.451,0.809,0.451
		c0.341,0,0.609-0.15,0.805-0.451C135.877,26.306,135.974,25.892,135.974,25.363z"/>
	<path fill="#6D6E70" d="M141.087,25.18v0.352h-2.977c0.029,0.495,0.164,0.872,0.404,1.131c0.24,0.259,0.575,0.389,1.002,0.389
		c0.25,0,0.492-0.034,0.725-0.102c0.233-0.068,0.464-0.169,0.693-0.305v0.68c-0.232,0.109-0.469,0.193-0.713,0.25
		c-0.244,0.057-0.49,0.086-0.74,0.086c-0.63,0-1.128-0.203-1.494-0.609c-0.366-0.406-0.549-0.956-0.549-1.648
		c0-0.716,0.174-1.285,0.521-1.705c0.347-0.42,0.817-0.631,1.408-0.631c0.529,0,0.947,0.189,1.256,0.568
		C140.932,24.015,141.087,24.529,141.087,25.18z M140.438,24.969c-0.005-0.393-0.104-0.707-0.297-0.941
		c-0.193-0.234-0.448-0.352-0.766-0.352c-0.362,0-0.652,0.113-0.869,0.34c-0.217,0.227-0.342,0.545-0.373,0.957L140.438,24.969z"/>
	<path fill="#6D6E70" d="M145.228,25.051v2.496h-0.648v-0.664c-0.146,0.266-0.329,0.461-0.549,0.588
		c-0.22,0.127-0.49,0.189-0.811,0.189c-0.404,0-0.724-0.125-0.961-0.377c-0.237-0.252-0.355-0.588-0.355-1.01
		c0-0.492,0.148-0.863,0.443-1.113c0.295-0.25,0.738-0.375,1.326-0.375h0.906v-0.07c0-0.331-0.098-0.586-0.293-0.768
		c-0.195-0.182-0.47-0.271-0.824-0.271c-0.224,0-0.443,0.03-0.656,0.09c-0.213,0.06-0.419,0.15-0.617,0.27v-0.664
		c0.237-0.102,0.467-0.178,0.689-0.229c0.222-0.051,0.439-0.076,0.65-0.076c0.57,0,0.996,0.164,1.277,0.492
		C145.086,23.887,145.228,24.384,145.228,25.051z M143.938,25.348c-0.523,0-0.886,0.066-1.088,0.199
		c-0.202,0.133-0.303,0.359-0.303,0.68c0,0.255,0.076,0.458,0.227,0.607s0.357,0.225,0.617,0.225c0.359,0,0.647-0.141,0.863-0.424
		c0.216-0.283,0.324-0.658,0.324-1.127v-0.16H143.938z"/>
	<path fill="#6D6E70" d="M149.833,24.906v2.641h-0.648V24.93c0-0.414-0.073-0.724-0.219-0.93s-0.363-0.309-0.652-0.309
		c-0.349,0-0.625,0.124-0.826,0.371c-0.201,0.247-0.303,0.584-0.303,1.012v2.473h-0.652v-4.375h0.652v0.68
		c0.154-0.263,0.335-0.459,0.545-0.59c0.21-0.131,0.453-0.195,0.729-0.195c0.451,0,0.792,0.156,1.025,0.467
		S149.833,24.302,149.833,24.906z"/>
	<path fill="#6D6E70" d="M157.364,22.164v0.832c-0.24-0.248-0.495-0.432-0.766-0.555s-0.559-0.184-0.863-0.184
		c-0.599,0-1.058,0.204-1.377,0.611c-0.319,0.407-0.479,0.997-0.479,1.768c0,0.768,0.16,1.356,0.479,1.764
		c0.319,0.408,0.778,0.611,1.377,0.611c0.305,0,0.592-0.061,0.863-0.184s0.526-0.307,0.766-0.555v0.824
		c-0.248,0.188-0.51,0.328-0.789,0.422c-0.279,0.094-0.572,0.141-0.879,0.141c-0.797,0-1.423-0.27-1.879-0.811
		s-0.684-1.278-0.684-2.213c0-0.938,0.228-1.676,0.684-2.217s1.082-0.811,1.879-0.811c0.312,0,0.608,0.046,0.887,0.139
		C156.862,21.839,157.122,21.979,157.364,22.164z"/>
	<path fill="#6D6E70" d="M159.958,23.066c0.562,0,1.004,0.203,1.326,0.609c0.322,0.406,0.482,0.969,0.482,1.688
		c0,0.716-0.161,1.278-0.482,1.686c-0.321,0.408-0.764,0.611-1.326,0.611c-0.565,0-1.007-0.204-1.326-0.611
		c-0.319-0.407-0.479-0.969-0.479-1.686c0-0.719,0.16-1.281,0.479-1.688C158.951,23.268,159.393,23.066,159.958,23.066z
		 M159.958,23.676c-0.346,0-0.621,0.15-0.822,0.451c-0.201,0.301-0.303,0.713-0.303,1.236c0,0.523,0.1,0.936,0.301,1.236
		c0.201,0.3,0.475,0.451,0.824,0.451c0.346,0,0.62-0.151,0.82-0.453c0.2-0.302,0.301-0.713,0.301-1.234
		c0-0.518-0.1-0.929-0.301-1.232C160.577,23.828,160.304,23.676,159.958,23.676z"/>
	<path fill="#6D6E70" d="M166.11,24.906v2.641h-0.648V24.93c0-0.414-0.073-0.724-0.219-0.93s-0.363-0.309-0.652-0.309
		c-0.349,0-0.625,0.124-0.826,0.371c-0.201,0.247-0.303,0.584-0.303,1.012v2.473h-0.652v-4.375h0.652v0.68
		c0.154-0.263,0.335-0.459,0.545-0.59c0.21-0.131,0.453-0.195,0.729-0.195c0.451,0,0.792,0.156,1.025,0.467
		C165.994,23.845,166.11,24.302,166.11,24.906z"/>
	<path fill="#6D6E70" d="M166.935,23.172h0.684l1.23,3.672l1.23-3.672h0.688l-1.477,4.375h-0.879L166.935,23.172z"/>
	<path fill="#6D6E70" d="M175.024,25.18v0.352h-2.977c0.029,0.495,0.164,0.872,0.404,1.131c0.24,0.259,0.575,0.389,1.002,0.389
		c0.25,0,0.492-0.034,0.725-0.102c0.233-0.068,0.464-0.169,0.693-0.305v0.68c-0.232,0.109-0.469,0.193-0.713,0.25
		c-0.244,0.057-0.49,0.086-0.74,0.086c-0.63,0-1.128-0.203-1.494-0.609c-0.366-0.406-0.549-0.956-0.549-1.648
		c0-0.716,0.174-1.285,0.521-1.705c0.347-0.42,0.817-0.631,1.408-0.631c0.529,0,0.947,0.189,1.256,0.568
		C174.869,24.015,175.024,24.529,175.024,25.18z M174.376,24.969c-0.005-0.393-0.104-0.707-0.297-0.941
		c-0.193-0.234-0.448-0.352-0.766-0.352c-0.362,0-0.652,0.113-0.869,0.34c-0.217,0.227-0.342,0.545-0.373,0.957L174.376,24.969z"/>
	<path fill="#6D6E70" d="M179.36,24.906v2.641h-0.648V24.93c0-0.414-0.073-0.724-0.219-0.93s-0.363-0.309-0.652-0.309
		c-0.349,0-0.625,0.124-0.826,0.371c-0.201,0.247-0.303,0.584-0.303,1.012v2.473h-0.652v-4.375h0.652v0.68
		c0.154-0.263,0.335-0.459,0.545-0.59c0.21-0.131,0.453-0.195,0.729-0.195c0.451,0,0.792,0.156,1.025,0.467
		C179.244,23.845,179.36,24.302,179.36,24.906z"/>
	<path fill="#6D6E70" d="M181.29,21.93v1.242h1.332v0.559h-1.332v2.375c0,0.357,0.043,0.586,0.131,0.688s0.265,0.152,0.533,0.152
		h0.668v0.602h-0.668c-0.498,0-0.841-0.104-1.031-0.311s-0.285-0.584-0.285-1.131V23.73h-0.473v-0.559h0.473V21.93H181.29z"/>
	<path fill="#6D6E70" d="M183.47,21.469h0.645v0.91h-0.645V21.469z M183.47,23.172h0.645v4.375h-0.645V23.172z"/>
	<path fill="#6D6E70" d="M186.993,23.066c0.562,0,1.004,0.203,1.326,0.609c0.322,0.406,0.482,0.969,0.482,1.688
		c0,0.716-0.161,1.278-0.482,1.686c-0.321,0.408-0.764,0.611-1.326,0.611c-0.565,0-1.007-0.204-1.326-0.611
		c-0.319-0.407-0.479-0.969-0.479-1.686c0-0.719,0.16-1.281,0.479-1.688C185.986,23.268,186.428,23.066,186.993,23.066z
		 M186.993,23.676c-0.346,0-0.621,0.15-0.822,0.451c-0.201,0.301-0.303,0.713-0.303,1.236c0,0.523,0.1,0.936,0.301,1.236
		c0.201,0.3,0.475,0.451,0.824,0.451c0.346,0,0.62-0.151,0.82-0.453c0.2-0.302,0.301-0.713,0.301-1.234
		c0-0.518-0.1-0.929-0.301-1.232C187.612,23.828,187.339,23.676,186.993,23.676z"/>
	<path fill="#6D6E70" d="M193.146,24.906v2.641h-0.648V24.93c0-0.414-0.073-0.724-0.219-0.93s-0.363-0.309-0.652-0.309
		c-0.349,0-0.625,0.124-0.826,0.371c-0.201,0.247-0.303,0.584-0.303,1.012v2.473h-0.652v-4.375h0.652v0.68
		c0.154-0.263,0.335-0.459,0.545-0.59c0.21-0.131,0.453-0.195,0.729-0.195c0.451,0,0.792,0.156,1.025,0.467
		S193.146,24.302,193.146,24.906z"/>
	<path fill="#6D6E70" d="M198.243,23.066c0.562,0,1.004,0.203,1.326,0.609c0.322,0.406,0.482,0.969,0.482,1.688
		c0,0.716-0.161,1.278-0.482,1.686c-0.321,0.408-0.764,0.611-1.326,0.611c-0.565,0-1.007-0.204-1.326-0.611
		c-0.319-0.407-0.479-0.969-0.479-1.686c0-0.719,0.16-1.281,0.479-1.688C197.236,23.268,197.678,23.066,198.243,23.066z
		 M198.243,23.676c-0.346,0-0.621,0.15-0.822,0.451c-0.201,0.301-0.303,0.713-0.303,1.236c0,0.523,0.1,0.936,0.301,1.236
		c0.201,0.3,0.475,0.451,0.824,0.451c0.346,0,0.62-0.151,0.82-0.453c0.2-0.302,0.301-0.713,0.301-1.234
		c0-0.518-0.1-0.929-0.301-1.232C198.862,23.828,198.589,23.676,198.243,23.676z"/>
	<path fill="#6D6E70" d="M204.396,24.906v2.641h-0.648V24.93c0-0.414-0.073-0.724-0.219-0.93s-0.363-0.309-0.652-0.309
		c-0.349,0-0.625,0.124-0.826,0.371c-0.201,0.247-0.303,0.584-0.303,1.012v2.473h-0.652v-4.375h0.652v0.68
		c0.154-0.263,0.335-0.459,0.545-0.59c0.21-0.131,0.453-0.195,0.729-0.195c0.451,0,0.792,0.156,1.025,0.467
		S204.396,24.302,204.396,24.906z"/>
</g>
<g>
	<path fill="#6D6E70" d="M135.812,29.715h0.711v2.391h2.578v-2.391h0.711v5.832h-0.711V32.77h-2.578v2.777h-0.711V29.715z"/>
	<path fill="#6D6E70" d="M141.132,33.82v-2.648h0.645v2.621c0,0.414,0.073,0.725,0.219,0.932s0.363,0.311,0.652,0.311
		c0.352,0,0.628-0.124,0.83-0.371s0.303-0.584,0.303-1.012v-2.48h0.648v4.375h-0.648v-0.672c-0.156,0.266-0.338,0.463-0.545,0.592
		c-0.207,0.129-0.449,0.193-0.725,0.193c-0.451,0-0.793-0.156-1.027-0.469S141.132,34.422,141.132,33.82z"/>
	<path fill="#6D6E70" d="M148.823,32.012c0.164-0.323,0.358-0.561,0.582-0.715c0.224-0.154,0.488-0.23,0.793-0.23
		c0.412,0,0.729,0.16,0.951,0.479s0.334,0.773,0.334,1.361v2.641h-0.652V32.93c0-0.419-0.066-0.73-0.199-0.934
		c-0.133-0.204-0.337-0.305-0.613-0.305c-0.333,0-0.598,0.124-0.793,0.371s-0.293,0.584-0.293,1.012v2.473h-0.648V32.93
		c0-0.422-0.067-0.734-0.201-0.936c-0.134-0.202-0.34-0.303-0.619-0.303c-0.331,0-0.593,0.125-0.787,0.373
		c-0.194,0.248-0.291,0.585-0.291,1.01v2.473h-0.652v-4.375h0.652v0.68c0.148-0.268,0.326-0.466,0.531-0.594
		c0.205-0.128,0.451-0.191,0.734-0.191c0.287,0,0.53,0.081,0.73,0.242C148.582,31.47,148.729,31.705,148.823,32.012z"/>
	<path fill="#6D6E70" d="M155.851,33.051v2.496h-0.648v-0.664c-0.146,0.266-0.329,0.461-0.549,0.588
		c-0.22,0.127-0.49,0.189-0.811,0.189c-0.404,0-0.724-0.125-0.961-0.377c-0.237-0.252-0.355-0.588-0.355-1.01
		c0-0.492,0.148-0.863,0.443-1.113c0.295-0.25,0.738-0.375,1.326-0.375h0.906v-0.07c0-0.331-0.098-0.586-0.293-0.768
		c-0.195-0.182-0.47-0.271-0.824-0.271c-0.224,0-0.443,0.03-0.656,0.09c-0.213,0.06-0.419,0.15-0.617,0.27v-0.664
		c0.237-0.102,0.467-0.178,0.689-0.229c0.222-0.051,0.439-0.076,0.65-0.076c0.57,0,0.996,0.164,1.277,0.492
		C155.709,31.887,155.851,32.384,155.851,33.051z M154.562,33.348c-0.523,0-0.886,0.066-1.088,0.199
		c-0.202,0.133-0.303,0.359-0.303,0.68c0,0.255,0.076,0.458,0.227,0.607s0.357,0.225,0.617,0.225c0.359,0,0.647-0.141,0.863-0.424
		c0.216-0.283,0.324-0.658,0.324-1.127v-0.16H154.562z"/>
	<path fill="#6D6E70" d="M160.456,32.906v2.641h-0.648V32.93c0-0.414-0.073-0.724-0.219-0.93s-0.363-0.309-0.652-0.309
		c-0.349,0-0.625,0.124-0.826,0.371c-0.201,0.247-0.303,0.584-0.303,1.012v2.473h-0.652v-4.375h0.652v0.68
		c0.154-0.263,0.335-0.459,0.545-0.59c0.21-0.131,0.453-0.195,0.729-0.195c0.451,0,0.792,0.156,1.025,0.467
		S160.456,32.302,160.456,32.906z"/>
	<path fill="#6D6E70" d="M166.546,32.812c0.154,0.057,0.302,0.18,0.445,0.367c0.143,0.187,0.288,0.445,0.434,0.773l0.723,1.594
		h-0.766l-0.672-1.496c-0.172-0.391-0.339-0.65-0.502-0.777s-0.385-0.191-0.666-0.191h-0.773v2.465h-0.711v-5.832h1.602
		c0.602,0,1.049,0.139,1.344,0.418c0.295,0.279,0.441,0.699,0.441,1.262c0,0.367-0.076,0.672-0.229,0.914
		C167.063,32.551,166.84,32.719,166.546,32.812z M164.769,30.363v2.07h0.891c0.344,0,0.603-0.088,0.777-0.264
		c0.174-0.176,0.262-0.434,0.262-0.775s-0.087-0.598-0.262-0.771s-0.434-0.26-0.777-0.26H164.769z"/>
	<path fill="#6D6E70" d="M169.03,29.469h0.645v0.91h-0.645V29.469z M169.03,31.172h0.645v4.375h-0.645V31.172z"/>
	<path fill="#6D6E70" d="M174.269,35.004c0,0.745-0.149,1.299-0.447,1.662c-0.298,0.363-0.754,0.545-1.369,0.545
		c-0.227,0-0.441-0.019-0.643-0.057c-0.202-0.038-0.398-0.096-0.588-0.174v-0.699c0.19,0.115,0.377,0.199,0.562,0.254
		c0.185,0.055,0.374,0.082,0.566,0.082c0.424,0,0.742-0.123,0.953-0.369c0.211-0.246,0.316-0.618,0.316-1.115v-0.355
		c-0.133,0.258-0.303,0.451-0.512,0.578s-0.458,0.191-0.75,0.191c-0.484,0-0.874-0.205-1.168-0.613
		c-0.294-0.408-0.441-0.951-0.441-1.625c0-0.677,0.147-1.22,0.441-1.629c0.294-0.409,0.684-0.613,1.168-0.613
		c0.292,0,0.542,0.064,0.75,0.191c0.208,0.127,0.379,0.32,0.512,0.578v-0.664h0.648v3.832H174.269z M173.62,33.309
		c0-0.521-0.097-0.924-0.291-1.211c-0.194-0.287-0.465-0.43-0.814-0.43c-0.346,0-0.616,0.143-0.809,0.43s-0.289,0.69-0.289,1.211
		c0,0.518,0.096,0.92,0.289,1.207s0.462,0.43,0.809,0.43c0.349,0,0.621-0.143,0.814-0.43S173.62,33.827,173.62,33.309z"/>
	<path fill="#6D6E70" d="M178.874,32.906v2.641h-0.648V32.93c0-0.414-0.073-0.724-0.219-0.93s-0.363-0.309-0.652-0.309
		c-0.349,0-0.625,0.124-0.826,0.371c-0.201,0.247-0.303,0.584-0.303,1.012v2.473h-0.652v-6.078h0.652v2.383
		c0.154-0.263,0.335-0.459,0.545-0.59c0.21-0.131,0.453-0.195,0.729-0.195c0.451,0,0.792,0.156,1.025,0.467
		S178.874,32.302,178.874,32.906z"/>
	<path fill="#6D6E70" d="M180.804,29.93v1.242h1.332v0.559h-1.332v2.375c0,0.357,0.043,0.586,0.131,0.688s0.265,0.152,0.533,0.152
		h0.668v0.602h-0.668c-0.498,0-0.841-0.104-1.031-0.311s-0.285-0.584-0.285-1.131V31.73h-0.473v-0.559h0.473V29.93H180.804z"/>
	<path fill="#6D6E70" d="M185.491,31.301v0.68c-0.182-0.104-0.372-0.182-0.568-0.234c-0.196-0.052-0.4-0.078-0.611-0.078
		c-0.32,0-0.561,0.055-0.723,0.164s-0.242,0.273-0.242,0.492c0,0.167,0.058,0.297,0.174,0.393c0.116,0.096,0.347,0.186,0.693,0.271
		l0.219,0.055c0.461,0.109,0.788,0.264,0.98,0.463c0.192,0.199,0.289,0.477,0.289,0.834c0,0.406-0.145,0.728-0.434,0.965
		c-0.289,0.237-0.686,0.355-1.191,0.355c-0.211,0-0.431-0.023-0.66-0.068c-0.229-0.045-0.47-0.114-0.723-0.205v-0.742
		c0.24,0.138,0.475,0.242,0.707,0.311s0.461,0.104,0.688,0.104c0.305,0,0.539-0.058,0.703-0.174c0.164-0.116,0.246-0.279,0.246-0.49
		c0-0.195-0.059-0.345-0.178-0.449c-0.119-0.104-0.378-0.205-0.779-0.301l-0.223-0.059c-0.401-0.094-0.691-0.238-0.869-0.432
		c-0.178-0.194-0.268-0.46-0.268-0.799c0-0.412,0.131-0.729,0.395-0.953c0.264-0.224,0.635-0.336,1.117-0.336
		c0.24,0,0.465,0.02,0.676,0.059C185.12,31.166,185.314,31.223,185.491,31.301z"/>
</g>
<g>
	<path fill="#00AFBC" d="M268.472,67.546h-1.564c-0.539-0.965-0.938-1.883-1.195-2.752c-0.257-0.869-0.387-1.73-0.387-2.586
		c0-0.856,0.13-1.723,0.39-2.6c0.26-0.877,0.657-1.794,1.192-2.751h1.564c-0.449,0.927-0.787,1.831-1.014,2.716
		s-0.34,1.76-0.34,2.622c0,0.863,0.112,1.738,0.337,2.625C267.68,65.708,268.019,66.617,268.472,67.546z"/>
	<path fill="#00AFBC" d="M270.323,57.216h2.033v8.748h-2.033V57.216z"/>
	<path fill="#00AFBC" d="M280.583,65.483c-0.375,0.215-0.766,0.377-1.169,0.486c-0.404,0.108-0.825,0.163-1.263,0.163
		c-1.312,0-2.353-0.406-3.117-1.221c-0.766-0.815-1.148-1.92-1.148-3.313c0-1.397,0.383-2.505,1.148-3.319
		c0.765-0.814,1.805-1.222,3.117-1.222c0.438,0,0.857,0.055,1.263,0.164c0.405,0.108,0.794,0.271,1.169,0.485v1.812
		c-0.379-0.285-0.751-0.494-1.116-0.627c-0.364-0.134-0.749-0.199-1.151-0.199c-0.727,0-1.297,0.259-1.711,0.772
		c-0.414,0.516-0.621,1.228-0.621,2.134c0,0.901,0.207,1.61,0.621,2.127s0.984,0.772,1.711,0.772c0.402,0,0.787-0.065,1.151-0.199
		c0.365-0.133,0.737-0.342,1.116-0.627V65.483z"/>
	<path fill="#00AFBC" d="M288.505,65.483c-0.375,0.215-0.765,0.377-1.169,0.486c-0.403,0.108-0.825,0.163-1.263,0.163
		c-1.312,0-2.352-0.406-3.117-1.221c-0.766-0.815-1.148-1.92-1.148-3.313c0-1.397,0.383-2.505,1.148-3.319s1.805-1.222,3.117-1.222
		c0.438,0,0.857,0.055,1.263,0.164c0.405,0.108,0.794,0.271,1.169,0.485v1.812c-0.379-0.285-0.751-0.494-1.115-0.627
		c-0.365-0.134-0.75-0.199-1.152-0.199c-0.727,0-1.297,0.259-1.711,0.772c-0.414,0.516-0.62,1.228-0.62,2.134
		c0,0.901,0.206,1.61,0.62,2.127s0.984,0.772,1.711,0.772c0.402,0,0.787-0.065,1.152-0.199c0.364-0.133,0.736-0.342,1.115-0.627
		V65.483z"/>
	<path fill="#00AFBC" d="M290.181,57.216h3.369c1.004,0,1.773,0.246,2.309,0.74c0.537,0.494,0.804,1.198,0.804,2.112
		c0,0.918-0.269,1.624-0.804,2.118c-0.534,0.494-1.305,0.741-2.309,0.741h-1.336v3.034h-2.033V57.216z M292.214,58.851v2.443h1.119
		c0.395,0,0.699-0.106,0.914-0.319s0.322-0.515,0.322-0.905c0-0.39-0.107-0.691-0.322-0.902s-0.52-0.315-0.914-0.315L292.214,58.851
		L292.214,58.851z"/>
	<path fill="#00AFBC" d="M300.124,62.653v3.312h-2.033v-8.748h3.1c1.039,0,1.801,0.193,2.283,0.58
		c0.481,0.387,0.724,0.998,0.724,1.834c0,0.578-0.125,1.053-0.375,1.424s-0.63,0.645-1.138,0.82
		c0.277,0.069,0.526,0.229,0.748,0.478c0.221,0.249,0.441,0.624,0.664,1.128l1.103,2.484h-2.162l-0.955-2.174
		c-0.194-0.438-0.394-0.736-0.592-0.896c-0.199-0.16-0.464-0.24-0.791-0.24L300.124,62.653L300.124,62.653z M300.979,61.095
		c0.422,0,0.726-0.088,0.91-0.264c0.186-0.177,0.278-0.465,0.278-0.867c0-0.398-0.093-0.685-0.278-0.855
		c-0.185-0.171-0.488-0.258-0.91-0.258h-0.855v2.244H300.979z"/>
	<path fill="#00AFBC" d="M306.282,67.546c0.449-0.93,0.785-1.838,1.011-2.726c0.226-0.887,0.337-1.762,0.337-2.625
		c0-0.862-0.111-1.737-0.337-2.622s-0.562-1.789-1.011-2.716h1.564c0.534,0.957,0.932,1.874,1.188,2.751s0.387,1.743,0.387,2.6
		c0,0.855-0.128,1.717-0.384,2.586s-0.653,1.787-1.191,2.752H306.282z"/>
</g>
<g>
	<path fill="#6D6E70" d="M232.333,72.132h0.711v5.832h-0.711V72.132z"/>
	<path fill="#6D6E70" d="M237.7,75.323v2.642h-0.648v-2.617c0-0.414-0.073-0.725-0.219-0.93c-0.146-0.207-0.363-0.31-0.652-0.31
		c-0.349,0-0.625,0.124-0.826,0.371s-0.303,0.585-0.303,1.013v2.473H234.4v-4.375h0.652v0.68c0.154-0.264,0.335-0.46,0.545-0.59
		c0.21-0.131,0.453-0.195,0.729-0.195c0.451,0,0.792,0.155,1.025,0.467C237.584,74.263,237.7,74.719,237.7,75.323z"/>
	<path fill="#6D6E70" d="M239.63,72.347v1.242h1.332v0.559h-1.332v2.375c0,0.355,0.043,0.586,0.131,0.688
		c0.088,0.103,0.265,0.152,0.533,0.152h0.668v0.602h-0.668c-0.498,0-0.841-0.104-1.031-0.311s-0.285-0.584-0.285-1.131v-2.375
		h-0.473v-0.559h0.473v-1.242H239.63L239.63,72.347z"/>
	<path fill="#6D6E70" d="M245.177,75.597v0.352H242.2c0.029,0.495,0.164,0.872,0.404,1.131c0.24,0.26,0.575,0.39,1.002,0.39
		c0.25,0,0.492-0.034,0.725-0.103s0.464-0.169,0.693-0.305v0.68c-0.232,0.109-0.469,0.192-0.713,0.25
		c-0.244,0.059-0.49,0.086-0.74,0.086c-0.63,0-1.128-0.203-1.494-0.608c-0.366-0.406-0.549-0.956-0.549-1.648
		c0-0.716,0.174-1.284,0.521-1.704c0.347-0.422,0.817-0.632,1.408-0.632c0.529,0,0.947,0.188,1.256,0.568
		C245.022,74.432,245.177,74.945,245.177,75.597z M244.528,75.386c-0.005-0.395-0.104-0.707-0.297-0.941s-0.448-0.352-0.766-0.352
		c-0.362,0-0.652,0.113-0.869,0.34c-0.217,0.227-0.342,0.546-0.373,0.957L244.528,75.386z"/>
	<path fill="#6D6E70" d="M248.521,74.261c-0.073-0.047-0.152-0.081-0.238-0.104c-0.086-0.023-0.18-0.033-0.281-0.033
		c-0.367,0-0.648,0.131-0.844,0.396c-0.196,0.265-0.293,0.644-0.293,1.14v2.305h-0.652v-4.375h0.652v0.68
		c0.135-0.266,0.312-0.463,0.531-0.592s0.483-0.193,0.793-0.193c0.044,0,0.094,0.003,0.148,0.01c0.054,0.008,0.115,0.018,0.18,0.029
		L248.521,74.261z"/>
	<path fill="#6D6E70" d="M252.333,75.323v2.642h-0.648v-2.617c0-0.414-0.073-0.725-0.219-0.93c-0.146-0.207-0.363-0.31-0.652-0.31
		c-0.349,0-0.625,0.124-0.826,0.371c-0.201,0.247-0.303,0.585-0.303,1.013v2.473h-0.652v-4.375h0.652v0.68
		c0.154-0.264,0.335-0.46,0.545-0.59c0.21-0.131,0.453-0.195,0.729-0.195c0.451,0,0.792,0.155,1.025,0.467
		C252.217,74.263,252.333,74.719,252.333,75.323z"/>
	<path fill="#6D6E70" d="M256.701,75.468v2.496h-0.648V77.3c-0.146,0.266-0.329,0.462-0.549,0.588
		c-0.22,0.126-0.49,0.189-0.811,0.189c-0.404,0-0.724-0.127-0.961-0.377c-0.237-0.252-0.355-0.589-0.355-1.011
		c0-0.492,0.148-0.862,0.443-1.112s0.738-0.375,1.326-0.375h0.906v-0.07c0-0.332-0.098-0.588-0.293-0.769
		c-0.195-0.181-0.47-0.271-0.824-0.271c-0.224,0-0.443,0.029-0.656,0.09c-0.213,0.061-0.419,0.148-0.617,0.27v-0.664
		c0.237-0.102,0.467-0.178,0.689-0.229c0.222-0.051,0.439-0.076,0.65-0.076c0.57,0,0.996,0.164,1.277,0.492
		C256.559,74.304,256.701,74.8,256.701,75.468z M255.412,75.765c-0.523,0-0.886,0.066-1.088,0.199
		c-0.202,0.133-0.303,0.358-0.303,0.68c0,0.255,0.076,0.458,0.227,0.607c0.151,0.148,0.357,0.225,0.617,0.225
		c0.359,0,0.647-0.143,0.863-0.424c0.216-0.282,0.324-0.658,0.324-1.127v-0.16H255.412L255.412,75.765z"/>
	<path fill="#6D6E70" d="M258.673,72.347v1.242h1.332v0.559h-1.332v2.375c0,0.355,0.043,0.586,0.131,0.688
		c0.088,0.103,0.265,0.152,0.533,0.152h0.668v0.602h-0.668c-0.498,0-0.841-0.104-1.031-0.311s-0.285-0.584-0.285-1.131v-2.375
		h-0.473v-0.559h0.473v-1.242H258.673L258.673,72.347z"/>
	<path fill="#6D6E70" d="M260.853,71.886h0.645v0.91h-0.645V71.886z M260.853,73.589h0.645v4.375h-0.645V73.589z"/>
	<path fill="#6D6E70" d="M264.376,73.483c0.562,0,1.004,0.203,1.326,0.608c0.322,0.406,0.482,0.97,0.482,1.688
		c0,0.716-0.161,1.278-0.482,1.687c-0.321,0.408-0.764,0.611-1.326,0.611c-0.565,0-1.007-0.205-1.326-0.611
		c-0.319-0.407-0.479-0.971-0.479-1.687c0-0.719,0.16-1.28,0.479-1.688C263.369,73.685,263.812,73.483,264.376,73.483z
		 M264.376,74.093c-0.346,0-0.621,0.15-0.822,0.451c-0.201,0.301-0.303,0.713-0.303,1.235c0,0.523,0.1,0.937,0.301,1.236
		c0.201,0.3,0.475,0.45,0.824,0.45c0.346,0,0.62-0.15,0.82-0.452c0.2-0.302,0.301-0.714,0.301-1.234c0-0.519-0.1-0.929-0.301-1.231
		C264.995,74.246,264.723,74.093,264.376,74.093z"/>
	<path fill="#6D6E70" d="M270.528,75.323v2.642h-0.648v-2.617c0-0.414-0.072-0.725-0.219-0.93c-0.146-0.207-0.363-0.31-0.652-0.31
		c-0.349,0-0.625,0.124-0.826,0.371c-0.201,0.247-0.303,0.585-0.303,1.013v2.473h-0.652v-4.375h0.652v0.68
		c0.154-0.264,0.335-0.46,0.545-0.59c0.21-0.131,0.453-0.195,0.729-0.195c0.451,0,0.792,0.155,1.027,0.467
		C270.412,74.262,270.528,74.719,270.528,75.323z"/>
	<path fill="#6D6E70" d="M274.896,75.468v2.496h-0.647V77.3c-0.146,0.266-0.329,0.462-0.549,0.588
		c-0.222,0.126-0.49,0.189-0.812,0.189c-0.404,0-0.725-0.127-0.961-0.377c-0.236-0.252-0.355-0.589-0.355-1.011
		c0-0.492,0.147-0.862,0.443-1.112c0.295-0.25,0.737-0.375,1.326-0.375h0.906v-0.07c0-0.332-0.098-0.588-0.293-0.769
		s-0.471-0.271-0.824-0.271c-0.225,0-0.443,0.029-0.656,0.09c-0.214,0.061-0.42,0.148-0.617,0.27v-0.664
		c0.236-0.102,0.467-0.178,0.689-0.229s0.439-0.076,0.65-0.076c0.57,0,0.996,0.164,1.277,0.492
		C274.754,74.304,274.896,74.8,274.896,75.468z M273.606,75.765c-0.522,0-0.887,0.066-1.088,0.199s-0.303,0.358-0.303,0.68
		c0,0.255,0.075,0.458,0.227,0.607c0.15,0.148,0.356,0.225,0.617,0.225c0.359,0,0.646-0.143,0.863-0.424
		c0.217-0.282,0.324-0.658,0.324-1.127v-0.16H273.606L273.606,75.765z"/>
	<path fill="#6D6E70" d="M276.229,71.886h0.645v6.078h-0.645V71.886z"/>
	<path fill="#6D6E70" d="M284.472,72.582v0.832c-0.24-0.248-0.496-0.434-0.767-0.556s-0.56-0.185-0.863-0.185
		c-0.6,0-1.059,0.205-1.377,0.611c-0.319,0.407-0.479,0.998-0.479,1.769c0,0.769,0.16,1.356,0.479,1.764
		c0.318,0.407,0.777,0.611,1.377,0.611c0.306,0,0.593-0.062,0.863-0.185c0.271-0.121,0.524-0.308,0.767-0.555v0.824
		c-0.248,0.188-0.513,0.328-0.789,0.422c-0.279,0.094-0.572,0.141-0.879,0.141c-0.798,0-1.425-0.271-1.88-0.811
		c-0.456-0.54-0.684-1.278-0.684-2.213c0-0.938,0.228-1.678,0.684-2.217c0.455-0.541,1.082-0.812,1.88-0.812
		c0.312,0,0.606,0.046,0.887,0.14C283.967,72.257,284.229,72.396,284.472,72.582z"/>
	<path fill="#6D6E70" d="M287.063,73.483c0.562,0,1.006,0.203,1.326,0.608c0.321,0.406,0.482,0.97,0.482,1.688
		c0,0.716-0.161,1.278-0.482,1.687c-0.32,0.408-0.764,0.611-1.326,0.611c-0.564,0-1.006-0.205-1.326-0.611
		c-0.318-0.407-0.479-0.971-0.479-1.687c0-0.719,0.159-1.28,0.479-1.688C286.058,73.685,286.499,73.483,287.063,73.483z
		 M287.063,74.093c-0.347,0-0.619,0.15-0.821,0.451s-0.304,0.713-0.304,1.235c0,0.523,0.102,0.937,0.302,1.236
		s0.476,0.45,0.823,0.45s0.621-0.15,0.82-0.452c0.2-0.302,0.301-0.714,0.301-1.234c0-0.519-0.101-0.929-0.301-1.231
		C287.685,74.246,287.411,74.093,287.063,74.093z"/>
	<path fill="#6D6E70" d="M289.479,73.589h0.684l1.23,3.672l1.229-3.672h0.688l-1.478,4.375h-0.879L289.479,73.589z"/>
	<path fill="#6D6E70" d="M297.567,75.597v0.352h-2.977c0.028,0.495,0.163,0.872,0.404,1.131c0.24,0.26,0.574,0.39,1.002,0.39
		c0.25,0,0.49-0.034,0.725-0.103s0.465-0.169,0.693-0.305v0.68c-0.23,0.109-0.471,0.192-0.713,0.25
		c-0.243,0.059-0.49,0.086-0.74,0.086c-0.63,0-1.128-0.203-1.494-0.608c-0.365-0.406-0.549-0.956-0.549-1.648
		c0-0.716,0.174-1.284,0.521-1.704c0.347-0.422,0.816-0.632,1.408-0.632c0.527,0,0.946,0.188,1.256,0.568
		C297.413,74.432,297.567,74.945,297.567,75.597z M296.92,75.386c-0.005-0.395-0.104-0.707-0.297-0.941s-0.448-0.352-0.767-0.352
		c-0.361,0-0.65,0.113-0.868,0.34s-0.343,0.546-0.373,0.957L296.92,75.386z"/>
	<path fill="#6D6E70" d="M301.903,75.323v2.642h-0.647v-2.617c0-0.414-0.073-0.725-0.219-0.93c-0.146-0.207-0.363-0.31-0.652-0.31
		c-0.349,0-0.624,0.124-0.825,0.371c-0.203,0.247-0.304,0.585-0.304,1.013v2.473h-0.651v-4.375h0.651v0.68
		c0.153-0.264,0.335-0.46,0.545-0.59c0.21-0.131,0.452-0.195,0.729-0.195c0.449,0,0.791,0.155,1.025,0.467
		C301.788,74.263,301.903,74.719,301.903,75.323z"/>
	<path fill="#6D6E70" d="M306.271,75.468v2.496h-0.647V77.3c-0.146,0.266-0.329,0.462-0.549,0.588s-0.49,0.189-0.812,0.189
		c-0.402,0-0.724-0.127-0.961-0.377c-0.236-0.252-0.355-0.589-0.355-1.011c0-0.492,0.147-0.862,0.443-1.112
		c0.297-0.25,0.737-0.375,1.326-0.375h0.906v-0.07c0-0.332-0.098-0.588-0.293-0.769s-0.471-0.271-0.824-0.271
		c-0.225,0-0.441,0.029-0.656,0.09c-0.214,0.061-0.419,0.148-0.617,0.27v-0.664c0.237-0.102,0.467-0.178,0.689-0.229
		s0.439-0.076,0.65-0.076c0.57,0,0.996,0.164,1.277,0.492C306.129,74.304,306.271,74.8,306.271,75.468z M304.981,75.765
		c-0.522,0-0.885,0.066-1.088,0.199c-0.201,0.133-0.303,0.358-0.303,0.68c0,0.255,0.075,0.458,0.227,0.607
		c0.152,0.148,0.356,0.225,0.617,0.225c0.359,0,0.647-0.143,0.863-0.424c0.217-0.282,0.324-0.658,0.324-1.127v-0.16H304.981
		L304.981,75.765z"/>
	<path fill="#6D6E70" d="M310.877,75.323v2.642h-0.647v-2.617c0-0.414-0.073-0.725-0.22-0.93c-0.146-0.207-0.362-0.31-0.651-0.31
		c-0.35,0-0.625,0.124-0.826,0.371c-0.202,0.247-0.303,0.585-0.303,1.013v2.473h-0.652v-4.375h0.652v0.68
		c0.152-0.264,0.334-0.46,0.545-0.59c0.209-0.131,0.451-0.195,0.729-0.195c0.45,0,0.792,0.155,1.025,0.467
		C310.761,74.263,310.877,74.719,310.877,75.323z"/>
	<path fill="#6D6E70" d="M312.808,72.347v1.242h1.332v0.559h-1.332v2.375c0,0.355,0.043,0.586,0.131,0.688
		c0.086,0.103,0.265,0.152,0.533,0.152h0.668v0.602h-0.668c-0.498,0-0.842-0.104-1.031-0.311c-0.19-0.207-0.285-0.584-0.285-1.131
		v-2.375h-0.473v-0.559h0.473v-1.242H312.808L312.808,72.347z"/>
	<path fill="#6D6E70" d="M318.795,73.483c0.562,0,1.005,0.203,1.326,0.608c0.321,0.406,0.481,0.97,0.481,1.688
		c0,0.716-0.16,1.278-0.481,1.687s-0.765,0.611-1.326,0.611c-0.565,0-1.007-0.205-1.325-0.611c-0.32-0.407-0.479-0.971-0.479-1.687
		c0-0.719,0.159-1.28,0.479-1.688C317.789,73.685,318.229,73.483,318.795,73.483z M318.795,74.093c-0.347,0-0.62,0.15-0.821,0.451
		c-0.203,0.301-0.304,0.713-0.304,1.235c0,0.523,0.101,0.937,0.302,1.236c0.199,0.3,0.476,0.45,0.823,0.45
		c0.347,0,0.62-0.15,0.82-0.452s0.301-0.714,0.301-1.234c0-0.519-0.101-0.929-0.301-1.231S319.142,74.093,318.795,74.093z"/>
	<path fill="#6D6E70" d="M324.946,75.323v2.642h-0.647v-2.617c0-0.414-0.073-0.725-0.219-0.93c-0.146-0.207-0.363-0.31-0.652-0.31
		c-0.349,0-0.624,0.124-0.825,0.371c-0.203,0.247-0.304,0.585-0.304,1.013v2.473h-0.651v-4.375h0.651v0.68
		c0.153-0.264,0.335-0.46,0.545-0.59c0.21-0.131,0.452-0.195,0.729-0.195c0.449,0,0.792,0.155,1.025,0.467
		C324.831,74.263,324.946,74.719,324.946,75.323z"/>
	<path fill="#6D6E70" d="M332.479,72.582v0.832c-0.239-0.248-0.496-0.434-0.767-0.556s-0.56-0.185-0.862-0.185
		c-0.6,0-1.059,0.205-1.377,0.611c-0.32,0.407-0.479,0.998-0.479,1.769c0,0.769,0.159,1.356,0.479,1.764
		c0.319,0.408,0.777,0.611,1.377,0.611c0.305,0,0.592-0.062,0.862-0.185c0.271-0.121,0.526-0.308,0.767-0.555v0.824
		c-0.248,0.188-0.512,0.328-0.789,0.422c-0.278,0.094-0.571,0.141-0.879,0.141c-0.797,0-1.424-0.271-1.879-0.811
		c-0.457-0.54-0.685-1.278-0.685-2.213c0-0.938,0.228-1.678,0.685-2.217c0.455-0.541,1.082-0.812,1.879-0.812
		c0.312,0,0.607,0.046,0.887,0.14C331.978,72.255,332.235,72.396,332.479,72.582z"/>
	<path fill="#6D6E70" d="M333.549,71.886h0.646v0.91h-0.646V71.886z M333.549,73.589h0.646v4.375h-0.646V73.589z"/>
	<path fill="#6D6E70" d="M335.084,73.589h0.685l1.229,3.672l1.229-3.672h0.688l-1.478,4.375h-0.879L335.084,73.589z"/>
	<path fill="#6D6E70" d="M339.808,71.886h0.645v0.91h-0.645V71.886z M339.808,73.589h0.645v4.375h-0.645V73.589z"/>
	<path fill="#6D6E70" d="M341.808,71.886h0.645v6.078h-0.645V71.886z"/>
</g>
<g>
	<path fill="#6D6E70" d="M256.904,83.468v2.496h-0.648V85.3c-0.146,0.266-0.329,0.462-0.549,0.588
		c-0.22,0.126-0.49,0.189-0.811,0.189c-0.404,0-0.724-0.127-0.961-0.377c-0.237-0.252-0.355-0.589-0.355-1.011
		c0-0.492,0.148-0.862,0.443-1.112s0.738-0.375,1.326-0.375h0.906v-0.07c0-0.332-0.098-0.588-0.293-0.769
		c-0.195-0.181-0.47-0.271-0.824-0.271c-0.224,0-0.443,0.029-0.656,0.09s-0.419,0.148-0.617,0.27v-0.664
		c0.237-0.102,0.467-0.178,0.689-0.229c0.222-0.051,0.439-0.076,0.65-0.076c0.57,0,0.996,0.164,1.277,0.492
		S256.904,82.8,256.904,83.468z M255.615,83.765c-0.523,0-0.886,0.066-1.088,0.199c-0.202,0.133-0.303,0.358-0.303,0.68
		c0,0.255,0.076,0.458,0.227,0.607c0.151,0.148,0.357,0.225,0.617,0.225c0.359,0,0.647-0.143,0.863-0.424
		c0.216-0.282,0.324-0.658,0.324-1.127v-0.16H255.615L255.615,83.765z"/>
	<path fill="#6D6E70" d="M261.509,83.323v2.642h-0.648v-2.617c0-0.414-0.073-0.725-0.219-0.93c-0.146-0.207-0.363-0.31-0.652-0.31
		c-0.349,0-0.625,0.124-0.826,0.371s-0.303,0.585-0.303,1.013v2.473h-0.652v-4.375h0.652v0.68c0.154-0.264,0.335-0.46,0.545-0.59
		c0.21-0.131,0.453-0.195,0.729-0.195c0.451,0,0.792,0.155,1.025,0.467C261.393,82.263,261.509,82.719,261.509,83.323z"/>
	<path fill="#6D6E70" d="M265.388,82.253v-2.367h0.648v6.078h-0.648v-0.656c-0.135,0.261-0.307,0.454-0.514,0.58
		s-0.457,0.189-0.748,0.189c-0.477,0-0.864-0.211-1.162-0.634c-0.298-0.422-0.447-0.978-0.447-1.664s0.149-1.241,0.447-1.663
		c0.298-0.423,0.686-0.634,1.162-0.634c0.292,0,0.541,0.063,0.748,0.188C265.081,81.798,265.253,81.992,265.388,82.253z
		 M263.185,83.78c0,0.528,0.098,0.943,0.293,1.244c0.195,0.302,0.463,0.451,0.805,0.451c0.344,0,0.614-0.149,0.811-0.451
		c0.197-0.301,0.295-0.716,0.295-1.244s-0.098-0.942-0.295-1.243c-0.197-0.302-0.467-0.451-0.811-0.451
		c-0.341,0-0.609,0.149-0.805,0.451C263.282,82.837,263.185,83.251,263.185,83.78z"/>
	<path fill="#6D6E70" d="M269.681,80.132h1.602c0.588,0,1.032,0.146,1.334,0.443c0.301,0.295,0.45,0.729,0.45,1.299
		c0,0.574-0.149,1.011-0.45,1.305c-0.302,0.294-0.746,0.441-1.334,0.441h-0.892v2.344h-0.71V80.132z M270.394,80.78v2.191h0.891
		c0.33,0,0.586-0.095,0.768-0.285s0.271-0.461,0.271-0.812c0-0.35-0.092-0.619-0.271-0.81c-0.182-0.19-0.438-0.285-0.768-0.285
		H270.394z"/>
	<path fill="#6D6E70" d="M275.237,81.483c0.562,0,1.005,0.203,1.326,0.608c0.32,0.406,0.481,0.97,0.481,1.688
		c0,0.716-0.161,1.278-0.481,1.687c-0.321,0.408-0.765,0.611-1.326,0.611c-0.565,0-1.008-0.205-1.326-0.611
		c-0.319-0.407-0.479-0.971-0.479-1.687c0-0.719,0.158-1.28,0.479-1.688C274.231,81.685,274.672,81.483,275.237,81.483z
		 M275.237,82.093c-0.348,0-0.62,0.15-0.822,0.451s-0.303,0.713-0.303,1.235c0,0.523,0.101,0.937,0.301,1.236
		c0.199,0.3,0.477,0.45,0.824,0.45c0.347,0,0.619-0.15,0.82-0.452c0.199-0.302,0.301-0.714,0.301-1.234
		c0-0.519-0.102-0.929-0.301-1.231C275.856,82.246,275.584,82.093,275.237,82.093z"/>
	<path fill="#6D6E70" d="M278.116,79.886h0.645v6.078h-0.645V79.886z"/>
	<path fill="#6D6E70" d="M280.116,79.886h0.645v0.91h-0.645V79.886z M280.116,81.589h0.645v4.375h-0.645V81.589z"/>
	<path fill="#6D6E70" d="M282.757,80.347v1.242h1.332v0.559h-1.332v2.375c0,0.355,0.044,0.586,0.131,0.688
		c0.088,0.103,0.266,0.152,0.533,0.152h0.668v0.602h-0.668c-0.497,0-0.841-0.104-1.031-0.311c-0.189-0.207-0.285-0.584-0.285-1.131
		v-2.375h-0.473v-0.559h0.473v-1.242H282.757L282.757,80.347z"/>
	<path fill="#6D6E70" d="M284.937,79.886h0.646v0.91h-0.646V79.886z M284.937,81.589h0.646v4.375h-0.646V81.589z"/>
	<path fill="#6D6E70" d="M289.769,81.757v0.672c-0.183-0.112-0.365-0.196-0.549-0.252c-0.184-0.057-0.369-0.084-0.557-0.084
		c-0.422,0-0.749,0.146-0.98,0.443c-0.23,0.295-0.348,0.709-0.348,1.243s0.116,0.948,0.348,1.244c0.232,0.296,0.56,0.442,0.98,0.442
		c0.188,0,0.373-0.027,0.557-0.084c0.184-0.055,0.366-0.139,0.549-0.252v0.664c-0.18,0.095-0.365,0.164-0.561,0.211
		c-0.195,0.048-0.398,0.07-0.615,0.07c-0.594,0-1.064-0.207-1.414-0.621c-0.349-0.414-0.522-0.973-0.522-1.676
		c0-0.714,0.177-1.273,0.528-1.684c0.353-0.41,0.836-0.613,1.447-0.613c0.2,0,0.396,0.021,0.586,0.068
		C289.408,81.596,289.592,81.666,289.769,81.757z"/>
	<path fill="#6D6E70" d="M293.972,83.468v2.496h-0.647V85.3c-0.146,0.266-0.329,0.462-0.55,0.588
		c-0.219,0.126-0.489,0.189-0.811,0.189c-0.402,0-0.725-0.127-0.961-0.377c-0.236-0.252-0.355-0.589-0.355-1.011
		c0-0.492,0.147-0.862,0.443-1.112s0.737-0.375,1.326-0.375h0.906v-0.07c0-0.332-0.098-0.588-0.293-0.769s-0.471-0.271-0.824-0.271
		c-0.225,0-0.441,0.029-0.656,0.09c-0.214,0.061-0.419,0.148-0.617,0.27v-0.664c0.237-0.102,0.467-0.178,0.689-0.229
		c0.222-0.051,0.439-0.076,0.65-0.076c0.569,0,0.996,0.164,1.276,0.492C293.83,82.304,293.972,82.8,293.972,83.468z M292.683,83.765
		c-0.522,0-0.886,0.066-1.088,0.199c-0.201,0.133-0.303,0.358-0.303,0.68c0,0.255,0.075,0.458,0.227,0.607
		c0.152,0.148,0.356,0.225,0.617,0.225c0.359,0,0.647-0.143,0.863-0.424c0.216-0.282,0.324-0.658,0.324-1.127v-0.16H292.683
		L292.683,83.765z"/>
	<path fill="#6D6E70" d="M295.304,79.886h0.646v6.078h-0.646V79.886z"/>
	<path fill="#6D6E70" d="M302.104,83.229c0.152,0.058,0.302,0.181,0.444,0.367c0.144,0.187,0.288,0.444,0.435,0.772l0.723,1.594
		h-0.766l-0.672-1.496c-0.172-0.391-0.34-0.648-0.502-0.776c-0.164-0.128-0.386-0.19-0.666-0.19h-0.773v2.465h-0.711v-5.832h1.602
		c0.602,0,1.051,0.14,1.344,0.418c0.295,0.277,0.441,0.699,0.441,1.262c0,0.367-0.076,0.672-0.229,0.914
		C302.621,82.968,302.397,83.136,302.104,83.229z M300.327,80.78v2.07h0.891c0.344,0,0.604-0.088,0.777-0.265
		c0.174-0.176,0.262-0.435,0.262-0.774s-0.087-0.599-0.262-0.771c-0.176-0.172-0.434-0.261-0.777-0.261H300.327z"/>
	<path fill="#6D6E70" d="M304.589,79.886h0.645v0.91h-0.645V79.886z M304.589,81.589h0.645v4.375h-0.645V81.589z"/>
	<path fill="#6D6E70" d="M309.827,85.421c0,0.744-0.148,1.299-0.447,1.662c-0.298,0.362-0.755,0.545-1.369,0.545
		c-0.227,0-0.439-0.02-0.643-0.058s-0.396-0.096-0.588-0.174v-0.699c0.189,0.114,0.378,0.199,0.562,0.255
		c0.185,0.055,0.374,0.082,0.566,0.082c0.425,0,0.741-0.123,0.952-0.369c0.212-0.246,0.316-0.619,0.316-1.115v-0.355
		c-0.133,0.258-0.304,0.45-0.512,0.578s-0.458,0.191-0.75,0.191c-0.484,0-0.874-0.204-1.168-0.613s-0.441-0.95-0.441-1.625
		c0-0.678,0.147-1.221,0.441-1.629c0.294-0.409,0.684-0.613,1.168-0.613c0.292,0,0.542,0.062,0.75,0.191
		c0.208,0.128,0.379,0.32,0.512,0.578v-0.664h0.648v3.832H309.827z M309.179,83.726c0-0.521-0.097-0.926-0.291-1.211
		c-0.193-0.286-0.466-0.43-0.813-0.43c-0.347,0-0.616,0.144-0.81,0.43c-0.192,0.285-0.289,0.689-0.289,1.211
		c0,0.52,0.098,0.921,0.289,1.207c0.192,0.286,0.463,0.43,0.81,0.43c0.349,0,0.62-0.144,0.813-0.43
		C309.082,84.647,309.179,84.244,309.179,83.726z"/>
	<path fill="#6D6E70" d="M314.433,83.323v2.642h-0.647v-2.617c0-0.414-0.073-0.725-0.22-0.93c-0.146-0.207-0.362-0.31-0.651-0.31
		c-0.349,0-0.624,0.124-0.826,0.371s-0.303,0.585-0.303,1.013v2.473h-0.652v-6.078h0.652v2.383c0.153-0.264,0.335-0.46,0.545-0.59
		c0.21-0.131,0.452-0.195,0.729-0.195c0.449,0,0.791,0.155,1.024,0.467C314.317,82.263,314.433,82.719,314.433,83.323z"/>
	<path fill="#6D6E70" d="M316.362,80.347v1.242h1.332v0.559h-1.332v2.375c0,0.355,0.044,0.586,0.131,0.688
		c0.087,0.103,0.265,0.152,0.533,0.152h0.668v0.602h-0.668c-0.498,0-0.842-0.104-1.031-0.311s-0.285-0.584-0.285-1.131v-2.375
		h-0.473v-0.559h0.473v-1.242H316.362L316.362,80.347z"/>
	<path fill="#6D6E70" d="M321.05,81.718v0.68c-0.183-0.104-0.372-0.184-0.568-0.234c-0.195-0.051-0.399-0.078-0.61-0.078
		c-0.32,0-0.562,0.056-0.724,0.164c-0.16,0.109-0.241,0.273-0.241,0.492c0,0.168,0.058,0.299,0.174,0.394s0.347,0.186,0.692,0.271
		l0.22,0.055c0.461,0.109,0.788,0.265,0.979,0.463c0.192,0.199,0.289,0.479,0.289,0.834c0,0.406-0.145,0.729-0.434,0.966
		s-0.688,0.354-1.191,0.354c-0.211,0-0.431-0.021-0.66-0.067c-0.229-0.046-0.47-0.114-0.723-0.205v-0.742
		c0.239,0.138,0.477,0.241,0.707,0.312c0.23,0.069,0.461,0.104,0.688,0.104c0.306,0,0.539-0.059,0.703-0.174
		c0.164-0.116,0.246-0.279,0.246-0.49c0-0.195-0.06-0.345-0.178-0.449c-0.118-0.104-0.378-0.203-0.779-0.301l-0.223-0.059
		c-0.4-0.094-0.689-0.237-0.869-0.433c-0.179-0.194-0.268-0.46-0.268-0.799c0-0.411,0.132-0.729,0.395-0.953
		c0.264-0.224,0.637-0.336,1.117-0.336c0.239,0,0.465,0.021,0.676,0.06S320.873,81.64,321.05,81.718z"/>
</g>
<g>
	<g>
		<g>
			<path fill="#00AFBC" d="M444.096,17.129h-1.563c-0.539-0.965-0.938-1.882-1.195-2.751s-0.387-1.731-0.387-2.587
				s0.13-1.722,0.39-2.599s0.657-1.794,1.192-2.751h1.563c-0.448,0.926-0.787,1.831-1.014,2.716c-0.228,0.885-0.34,1.759-0.34,2.622
				c0,0.863,0.112,1.738,0.337,2.625C443.304,15.291,443.643,16.199,444.096,17.129z"/>
			<path fill="#00AFBC" d="M452.193,15.066c-0.375,0.215-0.766,0.377-1.169,0.486c-0.404,0.109-0.825,0.164-1.264,0.164
				c-1.312,0-2.352-0.407-3.117-1.222c-0.765-0.815-1.147-1.919-1.147-3.313c0-1.398,0.383-2.505,1.147-3.319
				c0.766-0.814,1.806-1.222,3.117-1.222c0.438,0,0.858,0.055,1.264,0.164c0.404,0.109,0.794,0.271,1.169,0.486v1.811
				c-0.379-0.285-0.751-0.494-1.116-0.627c-0.365-0.133-0.749-0.199-1.151-0.199c-0.727,0-1.297,0.258-1.711,0.773
				c-0.414,0.515-0.621,1.227-0.621,2.133c0,0.902,0.207,1.611,0.621,2.127s0.984,0.773,1.711,0.773
				c0.402,0,0.786-0.066,1.151-0.199c0.365-0.133,0.737-0.342,1.116-0.627V15.066z"/>
			<path fill="#00AFBC" d="M453.869,6.799h5.479v1.705h-3.444v1.629h3.239v1.705h-3.239v3.709h-2.033L453.869,6.799L453.869,6.799z"
				/>
			<path fill="#00AFBC" d="M463.279,12.236v3.311h-2.033V6.799h3.1c1.039,0,1.8,0.193,2.282,0.58
				c0.482,0.387,0.724,0.998,0.724,1.834c0,0.578-0.125,1.053-0.375,1.424c-0.25,0.371-0.629,0.645-1.137,0.82
				c0.277,0.07,0.526,0.229,0.747,0.478s0.442,0.624,0.665,1.128l1.103,2.484h-2.162l-0.955-2.174
				c-0.195-0.438-0.394-0.736-0.592-0.896c-0.199-0.16-0.464-0.24-0.791-0.24L463.279,12.236L463.279,12.236z M464.135,10.678
				c0.422,0,0.727-0.088,0.911-0.264c0.186-0.176,0.278-0.465,0.278-0.867c0-0.398-0.093-0.684-0.278-0.855
				c-0.185-0.171-0.489-0.258-0.911-0.258h-0.854v2.244H464.135z"/>
			<path fill="#00AFBC" d="M469.561,6.799h5.479v1.705h-3.445v1.629h3.24v1.705h-3.24v2.004h3.562v1.705h-5.597V6.799z"/>
			<path fill="#00AFBC" d="M476.938,6.799h2.032v5.244c0,0.723,0.106,1.239,0.319,1.55c0.213,0.311,0.56,0.466,1.04,0.466
				c0.484,0,0.833-0.155,1.046-0.466c0.213-0.311,0.319-0.827,0.319-1.55V6.799h2.032v5.244c0,1.238-0.279,2.16-0.841,2.766
				c-0.561,0.606-1.413,0.908-2.558,0.908c-1.146,0-1.996-0.303-2.555-0.908c-0.56-0.605-0.839-1.527-0.839-2.766V6.799H476.938z"/>
			<path fill="#00AFBC" d="M485.58,17.129c0.449-0.93,0.786-1.838,1.011-2.725c0.226-0.887,0.337-1.762,0.337-2.625
				c0-0.863-0.111-1.737-0.337-2.622c-0.225-0.885-0.562-1.79-1.011-2.716h1.563c0.535,0.957,0.933,1.874,1.189,2.751
				s0.387,1.743,0.387,2.599s-0.128,1.718-0.384,2.587s-0.653,1.786-1.192,2.751H485.58z"/>
		</g>
	</g>
</g>
<g>
	<path fill="#6D6E70" d="M414.122,22.164v0.832c-0.239-0.248-0.495-0.432-0.766-0.555c-0.271-0.123-0.56-0.184-0.863-0.184
		c-0.6,0-1.059,0.204-1.377,0.611c-0.319,0.407-0.479,0.997-0.479,1.768c0,0.768,0.159,1.356,0.479,1.764
		c0.319,0.408,0.777,0.611,1.377,0.611c0.305,0,0.593-0.061,0.863-0.184c0.27-0.123,0.525-0.307,0.766-0.555v0.824
		c-0.247,0.188-0.511,0.328-0.789,0.422c-0.278,0.094-0.571,0.141-0.879,0.141c-0.797,0-1.423-0.27-1.879-0.811
		s-0.685-1.278-0.685-2.213c0-0.938,0.229-1.676,0.685-2.217s1.082-0.811,1.879-0.811c0.312,0,0.607,0.046,0.887,0.139
		C413.62,21.839,413.88,21.979,414.122,22.164z"/>
	<path fill="#6D6E70" d="M418.466,24.906v2.641h-0.647V24.93c0-0.414-0.073-0.724-0.22-0.93c-0.146-0.206-0.362-0.309-0.651-0.309
		c-0.35,0-0.624,0.124-0.826,0.371s-0.303,0.584-0.303,1.012v2.473h-0.652v-6.078h0.652v2.383c0.152-0.263,0.335-0.459,0.545-0.59
		c0.21-0.131,0.452-0.195,0.729-0.195c0.45,0,0.792,0.156,1.025,0.467C418.35,23.845,418.466,24.302,418.466,24.906z"/>
	<path fill="#6D6E70" d="M422.833,25.051v2.496h-0.648v-0.664c-0.146,0.266-0.328,0.461-0.549,0.588
		c-0.22,0.127-0.49,0.189-0.811,0.189c-0.403,0-0.725-0.125-0.961-0.377c-0.237-0.252-0.355-0.588-0.355-1.01
		c0-0.492,0.147-0.863,0.443-1.113s0.736-0.375,1.326-0.375h0.905v-0.07c0-0.331-0.098-0.586-0.293-0.768
		c-0.194-0.182-0.47-0.271-0.823-0.271c-0.225,0-0.442,0.03-0.656,0.09s-0.419,0.15-0.617,0.27v-0.664
		c0.237-0.102,0.467-0.178,0.689-0.229c0.222-0.051,0.438-0.076,0.649-0.076c0.57,0,0.996,0.164,1.277,0.492
		S422.833,24.384,422.833,25.051z M421.544,25.348c-0.523,0-0.886,0.066-1.088,0.199c-0.202,0.133-0.303,0.359-0.303,0.68
		c0,0.255,0.074,0.458,0.227,0.607s0.356,0.225,0.617,0.225c0.359,0,0.646-0.141,0.863-0.424c0.216-0.283,0.323-0.658,0.323-1.127
		v-0.16H421.544z"/>
	<path fill="#6D6E70" d="M426.446,23.844c-0.073-0.047-0.152-0.082-0.238-0.104c-0.086-0.022-0.18-0.033-0.281-0.033
		c-0.367,0-0.647,0.132-0.844,0.396s-0.293,0.644-0.293,1.139v2.305h-0.652v-4.375h0.652v0.68c0.136-0.266,0.312-0.463,0.531-0.592
		c0.219-0.129,0.482-0.193,0.793-0.193c0.044,0,0.094,0.003,0.147,0.01c0.055,0.007,0.114,0.016,0.181,0.029L426.446,23.844z"/>
	<path fill="#6D6E70" d="M427.763,21.93v1.242h1.332v0.559h-1.332v2.375c0,0.357,0.044,0.586,0.131,0.688
		c0.088,0.102,0.266,0.152,0.533,0.152h0.668v0.602h-0.668c-0.497,0-0.841-0.104-1.031-0.311c-0.189-0.207-0.284-0.584-0.284-1.131
		V23.73h-0.474v-0.559h0.474V21.93H427.763z"/>
	<path fill="#6D6E70" d="M433.31,25.18v0.352h-2.977c0.028,0.495,0.163,0.872,0.404,1.131c0.24,0.259,0.574,0.389,1.002,0.389
		c0.25,0,0.491-0.034,0.725-0.102c0.234-0.068,0.464-0.169,0.693-0.305v0.68c-0.231,0.109-0.471,0.193-0.713,0.25
		c-0.243,0.057-0.49,0.086-0.74,0.086c-0.63,0-1.128-0.203-1.494-0.609c-0.366-0.406-0.549-0.956-0.549-1.648
		c0-0.716,0.174-1.285,0.521-1.705c0.348-0.42,0.817-0.631,1.408-0.631c0.528,0,0.947,0.189,1.256,0.568
		C433.155,24.015,433.31,24.529,433.31,25.18z M432.661,24.969c-0.005-0.393-0.104-0.707-0.297-0.941
		c-0.193-0.234-0.448-0.352-0.767-0.352c-0.361,0-0.65,0.113-0.868,0.34c-0.219,0.227-0.343,0.545-0.373,0.957L432.661,24.969z"/>
	<path fill="#6D6E70" d="M436.653,23.844c-0.073-0.047-0.152-0.082-0.238-0.104c-0.086-0.022-0.18-0.033-0.281-0.033
		c-0.367,0-0.647,0.132-0.844,0.396s-0.293,0.644-0.293,1.139v2.305h-0.652v-4.375h0.652v0.68c0.136-0.266,0.312-0.463,0.531-0.592
		c0.219-0.129,0.482-0.193,0.793-0.193c0.044,0,0.094,0.003,0.147,0.01c0.055,0.007,0.114,0.016,0.181,0.029L436.653,23.844z"/>
	<path fill="#6D6E70" d="M441.138,23.066c0.562,0,1.005,0.203,1.326,0.609c0.321,0.406,0.482,0.969,0.482,1.688
		c0,0.716-0.161,1.278-0.482,1.686c-0.321,0.408-0.764,0.611-1.326,0.611c-0.564,0-1.007-0.204-1.326-0.611
		c-0.318-0.407-0.479-0.969-0.479-1.686c0-0.719,0.159-1.281,0.479-1.688C440.132,23.268,440.572,23.066,441.138,23.066z
		 M441.138,23.676c-0.347,0-0.62,0.15-0.821,0.451c-0.202,0.301-0.304,0.713-0.304,1.236c0,0.523,0.102,0.936,0.302,1.236
		c0.199,0.3,0.476,0.451,0.823,0.451s0.62-0.151,0.82-0.453c0.2-0.302,0.301-0.713,0.301-1.234c0-0.518-0.101-0.929-0.301-1.232
		C441.758,23.828,441.484,23.676,441.138,23.676z"/>
	<path fill="#6D6E70" d="M446.009,21.469v0.598h-0.617c-0.233,0-0.396,0.052-0.485,0.156s-0.136,0.292-0.136,0.562v0.387h1.066
		v0.559h-1.066v3.816h-0.647V23.73h-0.621v-0.559h0.621v-0.305c0-0.487,0.102-0.842,0.305-1.064c0.203-0.222,0.526-0.334,0.97-0.334
		h0.611V21.469z"/>
	<path fill="#6D6E70" d="M448.86,21.715h3.016v0.664h-2.305v1.719h2.082v0.664h-2.082v2.785h-0.711V21.715z"/>
	<path fill="#6D6E70" d="M452.467,25.82v-2.648h0.646v2.621c0,0.414,0.072,0.725,0.219,0.932c0.146,0.207,0.363,0.311,0.652,0.311
		c0.352,0,0.628-0.124,0.83-0.371c0.201-0.247,0.303-0.584,0.303-1.012v-2.48h0.647v4.375h-0.647v-0.672
		c-0.156,0.266-0.338,0.463-0.545,0.592c-0.207,0.129-0.448,0.193-0.726,0.193c-0.45,0-0.793-0.156-1.026-0.469
		C452.585,26.879,452.467,26.422,452.467,25.82z"/>
	<path fill="#6D6E70" d="M460.369,24.906v2.641h-0.648V24.93c0-0.414-0.072-0.724-0.219-0.93c-0.146-0.206-0.363-0.309-0.652-0.309
		c-0.349,0-0.624,0.124-0.825,0.371c-0.202,0.247-0.304,0.584-0.304,1.012v2.473h-0.651v-4.375h0.651v0.68
		c0.153-0.263,0.335-0.459,0.545-0.59c0.21-0.131,0.452-0.195,0.729-0.195c0.45,0,0.792,0.156,1.024,0.467
		C460.253,23.845,460.369,24.302,460.369,24.906z"/>
	<path fill="#6D6E70" d="M464.248,23.836v-2.367h0.647v6.078h-0.647v-0.656c-0.136,0.26-0.307,0.454-0.514,0.58
		s-0.456,0.189-0.748,0.189c-0.478,0-0.864-0.211-1.162-0.633c-0.298-0.422-0.447-0.977-0.447-1.664s0.149-1.242,0.447-1.664
		c0.298-0.422,0.686-0.633,1.162-0.633c0.292,0,0.541,0.063,0.748,0.189S464.112,23.576,464.248,23.836z M462.045,25.363
		c0,0.529,0.098,0.943,0.293,1.244c0.195,0.301,0.464,0.451,0.805,0.451c0.345,0,0.614-0.15,0.812-0.451
		c0.197-0.301,0.295-0.715,0.295-1.244c0-0.529-0.099-0.943-0.295-1.244c-0.196-0.301-0.467-0.451-0.812-0.451
		c-0.341,0-0.608,0.15-0.805,0.451C462.142,24.42,462.045,24.834,462.045,25.363z"/>
	<path fill="#6D6E70" d="M469.307,25.051v2.496h-0.647v-0.664c-0.146,0.266-0.329,0.461-0.549,0.588
		c-0.221,0.127-0.49,0.189-0.812,0.189c-0.403,0-0.724-0.125-0.961-0.377c-0.237-0.252-0.354-0.588-0.354-1.01
		c0-0.492,0.146-0.863,0.442-1.113s0.737-0.375,1.326-0.375h0.906v-0.07c0-0.331-0.099-0.586-0.293-0.768
		c-0.195-0.182-0.471-0.271-0.824-0.271c-0.224,0-0.442,0.03-0.656,0.09s-0.419,0.15-0.617,0.27v-0.664
		c0.237-0.102,0.468-0.178,0.689-0.229c0.222-0.051,0.438-0.076,0.649-0.076c0.57,0,0.996,0.164,1.277,0.492
		S469.307,24.384,469.307,25.051z M468.018,25.348c-0.522,0-0.886,0.066-1.088,0.199c-0.202,0.133-0.303,0.359-0.303,0.68
		c0,0.255,0.075,0.458,0.227,0.607c0.152,0.149,0.356,0.225,0.617,0.225c0.359,0,0.647-0.141,0.863-0.424
		c0.216-0.283,0.324-0.658,0.324-1.127v-0.16H468.018z"/>
	<path fill="#6D6E70" d="M473.701,24.012c0.164-0.323,0.357-0.561,0.582-0.715c0.224-0.154,0.487-0.23,0.793-0.23
		c0.411,0,0.729,0.16,0.951,0.479c0.222,0.319,0.334,0.773,0.334,1.361v2.641h-0.652V24.93c0-0.419-0.066-0.73-0.199-0.934
		s-0.337-0.305-0.612-0.305c-0.334,0-0.599,0.124-0.794,0.371c-0.194,0.247-0.293,0.584-0.293,1.012v2.473h-0.647V24.93
		c0-0.422-0.067-0.734-0.201-0.936c-0.134-0.202-0.341-0.303-0.619-0.303c-0.331,0-0.593,0.125-0.787,0.373
		c-0.193,0.248-0.291,0.585-0.291,1.01v2.473h-0.651v-4.375h0.651v0.68c0.148-0.268,0.325-0.466,0.531-0.594
		c0.206-0.128,0.45-0.191,0.734-0.191c0.286,0,0.529,0.081,0.729,0.242S473.607,23.705,473.701,24.012z"/>
	<path fill="#6D6E70" d="M481.018,25.18v0.352h-2.977c0.028,0.495,0.163,0.872,0.404,1.131c0.24,0.259,0.575,0.389,1.002,0.389
		c0.25,0,0.491-0.034,0.725-0.102c0.234-0.068,0.464-0.169,0.693-0.305v0.68c-0.231,0.109-0.47,0.193-0.713,0.25
		c-0.243,0.057-0.49,0.086-0.74,0.086c-0.63,0-1.128-0.203-1.494-0.609c-0.366-0.406-0.549-0.956-0.549-1.648
		c0-0.716,0.174-1.285,0.521-1.705c0.348-0.42,0.817-0.631,1.408-0.631c0.528,0,0.947,0.189,1.256,0.568
		C480.863,24.015,481.018,24.529,481.018,25.18z M480.369,24.969c-0.005-0.393-0.104-0.707-0.297-0.941
		c-0.193-0.234-0.448-0.352-0.767-0.352c-0.361,0-0.65,0.113-0.869,0.34c-0.218,0.227-0.342,0.545-0.372,0.957L480.369,24.969z"/>
	<path fill="#6D6E70" d="M485.354,24.906v2.641h-0.648V24.93c0-0.414-0.073-0.724-0.219-0.93c-0.146-0.206-0.363-0.309-0.652-0.309
		c-0.349,0-0.624,0.124-0.826,0.371s-0.303,0.584-0.303,1.012v2.473h-0.652v-4.375h0.652v0.68c0.153-0.263,0.335-0.459,0.545-0.59
		c0.21-0.131,0.452-0.195,0.729-0.195c0.449,0,0.792,0.156,1.024,0.467C485.238,23.845,485.354,24.302,485.354,24.906z"/>
	<path fill="#6D6E70" d="M487.283,21.93v1.242h1.332v0.559h-1.332v2.375c0,0.357,0.044,0.586,0.131,0.688s0.265,0.152,0.533,0.152
		h0.668v0.602h-0.668c-0.497,0-0.841-0.104-1.031-0.311s-0.285-0.584-0.285-1.131V23.73h-0.473v-0.559h0.473V21.93H487.283z"/>
	<path fill="#6D6E70" d="M492.541,25.051v2.496h-0.648v-0.664c-0.146,0.266-0.329,0.461-0.549,0.588s-0.49,0.189-0.811,0.189
		c-0.403,0-0.725-0.125-0.961-0.377c-0.237-0.252-0.355-0.588-0.355-1.01c0-0.492,0.147-0.863,0.443-1.113s0.736-0.375,1.326-0.375
		h0.905v-0.07c0-0.331-0.098-0.586-0.293-0.768c-0.194-0.182-0.47-0.271-0.823-0.271c-0.225,0-0.442,0.03-0.656,0.09
		s-0.419,0.15-0.617,0.27v-0.664c0.237-0.102,0.467-0.178,0.688-0.229c0.223-0.051,0.439-0.076,0.65-0.076
		c0.57,0,0.996,0.164,1.277,0.492S492.541,24.384,492.541,25.051z M491.252,25.348c-0.522,0-0.886,0.066-1.088,0.199
		c-0.202,0.133-0.303,0.359-0.303,0.68c0,0.255,0.074,0.458,0.227,0.607s0.356,0.225,0.617,0.225c0.359,0,0.646-0.141,0.863-0.424
		c0.216-0.283,0.323-0.658,0.323-1.127v-0.16H491.252z"/>
	<path fill="#6D6E70" d="M493.873,21.469h0.645v6.078h-0.645V21.469z"/>
	<path fill="#6D6E70" d="M500.674,24.812c0.153,0.057,0.302,0.18,0.445,0.367c0.143,0.187,0.288,0.445,0.434,0.773l0.724,1.594
		h-0.767l-0.672-1.496c-0.172-0.391-0.339-0.65-0.502-0.777s-0.385-0.191-0.666-0.191h-0.772v2.465h-0.712v-5.832h1.603
		c0.602,0,1.05,0.139,1.344,0.418c0.294,0.279,0.441,0.699,0.441,1.262c0,0.367-0.076,0.672-0.229,0.914
		C501.191,24.551,500.968,24.719,500.674,24.812z M498.896,22.363v2.07h0.892c0.344,0,0.603-0.088,0.777-0.264
		c0.174-0.176,0.262-0.434,0.262-0.775s-0.087-0.598-0.262-0.771c-0.176-0.173-0.435-0.26-0.777-0.26H498.896z"/>
	<path fill="#6D6E70" d="M503.158,21.469h0.645v0.91h-0.645V21.469z M503.158,23.172h0.645v4.375h-0.645V23.172z"/>
	<path fill="#6D6E70" d="M508.396,27.004c0,0.745-0.148,1.299-0.446,1.662s-0.755,0.545-1.369,0.545
		c-0.228,0-0.44-0.019-0.644-0.057c-0.202-0.038-0.396-0.096-0.588-0.174v-0.699c0.19,0.115,0.378,0.199,0.562,0.254
		c0.184,0.055,0.374,0.082,0.565,0.082c0.426,0,0.742-0.123,0.953-0.369s0.316-0.618,0.316-1.115v-0.355
		c-0.133,0.258-0.304,0.451-0.512,0.578s-0.458,0.191-0.75,0.191c-0.484,0-0.874-0.205-1.168-0.613
		c-0.294-0.408-0.441-0.951-0.441-1.625c0-0.677,0.147-1.22,0.441-1.629c0.294-0.409,0.684-0.613,1.168-0.613
		c0.292,0,0.542,0.064,0.75,0.191c0.208,0.127,0.379,0.32,0.512,0.578v-0.664h0.647v3.832H508.396z M507.748,25.309
		c0-0.521-0.097-0.924-0.291-1.211s-0.466-0.43-0.814-0.43c-0.347,0-0.615,0.143-0.809,0.43s-0.289,0.69-0.289,1.211
		c0,0.518,0.097,0.92,0.289,1.207s0.462,0.43,0.809,0.43c0.35,0,0.62-0.143,0.814-0.43S507.748,25.827,507.748,25.309z"/>
	<path fill="#6D6E70" d="M513.002,24.906v2.641h-0.647V24.93c0-0.414-0.073-0.724-0.22-0.93c-0.146-0.206-0.362-0.309-0.651-0.309
		c-0.35,0-0.624,0.124-0.826,0.371s-0.303,0.584-0.303,1.012v2.473h-0.652v-6.078h0.652v2.383c0.152-0.263,0.335-0.459,0.545-0.59
		c0.21-0.131,0.451-0.195,0.729-0.195c0.45,0,0.792,0.156,1.025,0.467C512.886,23.845,513.002,24.302,513.002,24.906z"/>
	<path fill="#6D6E70" d="M514.932,21.93v1.242h1.332v0.559h-1.332v2.375c0,0.357,0.044,0.586,0.132,0.688
		c0.087,0.102,0.265,0.152,0.532,0.152h0.668v0.602h-0.668c-0.497,0-0.841-0.104-1.03-0.311c-0.19-0.207-0.285-0.584-0.285-1.131
		V23.73h-0.474v-0.559h0.474V21.93H514.932z"/>
	<path fill="#6D6E70" d="M519.619,23.301v0.68c-0.183-0.104-0.372-0.182-0.568-0.234c-0.195-0.052-0.399-0.078-0.61-0.078
		c-0.32,0-0.562,0.055-0.724,0.164s-0.242,0.273-0.242,0.492c0,0.167,0.059,0.297,0.175,0.393c0.115,0.096,0.347,0.186,0.692,0.271
		l0.219,0.055c0.462,0.109,0.788,0.264,0.98,0.463c0.192,0.199,0.289,0.477,0.289,0.834c0,0.406-0.146,0.728-0.435,0.965
		c-0.289,0.237-0.687,0.355-1.19,0.355c-0.211,0-0.431-0.023-0.66-0.068c-0.229-0.045-0.47-0.114-0.723-0.205v-0.742
		c0.238,0.138,0.476,0.242,0.707,0.311c0.23,0.069,0.461,0.104,0.688,0.104c0.305,0,0.539-0.058,0.703-0.174
		c0.164-0.116,0.246-0.279,0.246-0.49c0-0.195-0.061-0.345-0.178-0.449c-0.118-0.104-0.378-0.205-0.779-0.301l-0.223-0.059
		c-0.401-0.094-0.69-0.238-0.869-0.432c-0.18-0.194-0.269-0.46-0.269-0.799c0-0.412,0.132-0.729,0.396-0.953
		c0.263-0.224,0.636-0.336,1.117-0.336c0.238,0,0.465,0.02,0.676,0.059S519.442,23.223,519.619,23.301z"/>
</g>
<g>
	<path fill="#6D6E70" d="M426.704,31.066c0.562,0,1.005,0.203,1.326,0.609c0.32,0.406,0.481,0.969,0.481,1.688
		c0,0.716-0.161,1.278-0.481,1.686c-0.321,0.408-0.765,0.611-1.326,0.611c-0.565,0-1.007-0.204-1.326-0.611
		c-0.319-0.407-0.479-0.969-0.479-1.686c0-0.719,0.158-1.281,0.479-1.688C425.698,31.268,426.139,31.066,426.704,31.066z
		 M426.704,31.676c-0.347,0-0.62,0.15-0.822,0.451c-0.202,0.301-0.303,0.713-0.303,1.236c0,0.523,0.101,0.936,0.301,1.236
		c0.2,0.3,0.477,0.451,0.824,0.451c0.347,0,0.62-0.151,0.82-0.453c0.199-0.302,0.301-0.713,0.301-1.234
		c0-0.518-0.102-0.929-0.301-1.232C427.324,31.828,427.051,31.676,426.704,31.676z"/>
	<path fill="#6D6E70" d="M431.575,29.469v0.598h-0.617c-0.234,0-0.396,0.052-0.486,0.156s-0.135,0.292-0.135,0.562v0.387h1.066
		v0.559h-1.066v3.816h-0.647V31.73h-0.621v-0.559h0.621v-0.305c0-0.487,0.102-0.842,0.305-1.064
		c0.203-0.222,0.525-0.334,0.969-0.334h0.612V29.469z"/>
	<path fill="#6D6E70" d="M435.04,29.93v1.242h1.332v0.559h-1.332v2.375c0,0.357,0.044,0.586,0.131,0.688s0.266,0.152,0.533,0.152
		h0.668v0.602h-0.668c-0.497,0-0.841-0.104-1.031-0.311c-0.189-0.207-0.285-0.584-0.285-1.131V31.73h-0.473v-0.559h0.473V29.93
		H435.04z"/>
	<path fill="#6D6E70" d="M440.493,32.906v2.641h-0.648V32.93c0-0.414-0.072-0.724-0.219-0.93c-0.146-0.206-0.363-0.309-0.652-0.309
		c-0.349,0-0.624,0.124-0.825,0.371c-0.202,0.247-0.304,0.584-0.304,1.012v2.473h-0.651v-6.078h0.651v2.383
		c0.153-0.263,0.335-0.459,0.545-0.59c0.21-0.131,0.452-0.195,0.729-0.195c0.45,0,0.792,0.156,1.024,0.467
		C440.377,31.845,440.493,32.302,440.493,32.906z"/>
	<path fill="#6D6E70" d="M445.149,33.18v0.352h-2.978c0.028,0.495,0.163,0.872,0.404,1.131c0.241,0.259,0.575,0.389,1.002,0.389
		c0.25,0,0.491-0.034,0.725-0.102c0.234-0.068,0.464-0.169,0.693-0.305v0.68c-0.231,0.109-0.47,0.193-0.713,0.25
		c-0.243,0.057-0.49,0.086-0.74,0.086c-0.63,0-1.128-0.203-1.494-0.609c-0.366-0.406-0.549-0.956-0.549-1.648
		c0-0.716,0.174-1.285,0.521-1.705c0.348-0.42,0.817-0.631,1.408-0.631c0.528,0,0.947,0.189,1.256,0.568
		C444.994,32.015,445.149,32.529,445.149,33.18z M444.501,32.969c-0.005-0.393-0.104-0.707-0.297-0.941
		c-0.193-0.234-0.448-0.352-0.766-0.352c-0.362,0-0.651,0.113-0.869,0.34c-0.219,0.227-0.343,0.545-0.373,0.957L444.501,32.969z"/>
	<path fill="#6D6E70" d="M448.524,29.715h3.315v0.664h-2.604v1.727h2.5v0.664h-2.5v2.113h2.672v0.664h-3.383V29.715z"/>
	<path fill="#6D6E70" d="M452.978,33.82v-2.648h0.646v2.621c0,0.414,0.073,0.725,0.219,0.932c0.146,0.207,0.363,0.311,0.652,0.311
		c0.352,0,0.628-0.124,0.83-0.371s0.303-0.584,0.303-1.012v-2.48h0.648v4.375h-0.648v-0.672c-0.156,0.266-0.338,0.463-0.545,0.592
		c-0.207,0.129-0.448,0.193-0.725,0.193c-0.45,0-0.794-0.156-1.027-0.469C453.096,34.879,452.978,34.422,452.978,33.82z"/>
	<path fill="#6D6E70" d="M459.888,31.844c-0.072-0.047-0.151-0.082-0.237-0.104c-0.086-0.022-0.181-0.033-0.281-0.033
		c-0.367,0-0.648,0.132-0.844,0.396c-0.196,0.264-0.293,0.644-0.293,1.139v2.305h-0.652v-4.375h0.652v0.68
		c0.136-0.266,0.312-0.463,0.53-0.592c0.22-0.129,0.483-0.193,0.793-0.193c0.044,0,0.095,0.003,0.148,0.01
		c0.054,0.007,0.114,0.016,0.18,0.029L459.888,31.844z"/>
	<path fill="#6D6E70" d="M461.919,31.066c0.562,0,1.005,0.203,1.326,0.609c0.321,0.406,0.481,0.969,0.481,1.688
		c0,0.716-0.16,1.278-0.481,1.686c-0.321,0.408-0.764,0.611-1.326,0.611c-0.564,0-1.007-0.204-1.326-0.611
		c-0.318-0.407-0.479-0.969-0.479-1.686c0-0.719,0.159-1.281,0.479-1.688C460.913,31.268,461.354,31.066,461.919,31.066z
		 M461.919,31.676c-0.347,0-0.62,0.15-0.822,0.451c-0.201,0.301-0.303,0.713-0.303,1.236c0,0.523,0.102,0.936,0.301,1.236
		c0.2,0.3,0.477,0.451,0.824,0.451c0.347,0,0.62-0.151,0.82-0.453c0.2-0.302,0.301-0.713,0.301-1.234
		c0-0.518-0.101-0.929-0.301-1.232C462.539,31.828,462.266,31.676,461.919,31.676z"/>
	<path fill="#6D6E70" d="M465.423,34.891v2.32h-0.652v-6.039h0.652v0.664c0.136-0.26,0.308-0.454,0.514-0.58
		c0.207-0.126,0.455-0.189,0.744-0.189c0.479,0,0.868,0.211,1.166,0.633c0.298,0.422,0.447,0.977,0.447,1.664
		c0,0.687-0.149,1.242-0.447,1.664c-0.298,0.422-0.687,0.633-1.166,0.633c-0.289,0-0.537-0.063-0.744-0.189
		C465.73,35.346,465.559,35.151,465.423,34.891z M467.622,33.363c0-0.529-0.098-0.943-0.293-1.244
		c-0.195-0.301-0.464-0.451-0.805-0.451c-0.345,0-0.613,0.15-0.81,0.451c-0.196,0.301-0.293,0.715-0.293,1.244
		c0,0.529,0.099,0.943,0.293,1.244c0.195,0.301,0.465,0.451,0.81,0.451c0.341,0,0.608-0.15,0.805-0.451
		C467.525,34.306,467.622,33.892,467.622,33.363z"/>
	<path fill="#6D6E70" d="M472.735,33.18v0.352h-2.978c0.028,0.495,0.163,0.872,0.404,1.131c0.241,0.259,0.575,0.389,1.002,0.389
		c0.25,0,0.491-0.034,0.725-0.102c0.234-0.068,0.464-0.169,0.693-0.305v0.68c-0.231,0.109-0.47,0.193-0.713,0.25
		c-0.243,0.057-0.49,0.086-0.74,0.086c-0.63,0-1.128-0.203-1.494-0.609c-0.366-0.406-0.549-0.956-0.549-1.648
		c0-0.716,0.174-1.285,0.521-1.705c0.347-0.42,0.816-0.631,1.407-0.631c0.528,0,0.947,0.189,1.256,0.568
		C472.58,32.015,472.735,32.529,472.735,33.18z M472.087,32.969c-0.005-0.393-0.104-0.707-0.297-0.941
		c-0.193-0.234-0.448-0.352-0.766-0.352c-0.362,0-0.651,0.113-0.869,0.34s-0.342,0.545-0.373,0.957L472.087,32.969z"/>
	<path fill="#6D6E70" d="M476.876,33.051v2.496h-0.648v-0.664c-0.146,0.266-0.328,0.461-0.549,0.588
		c-0.22,0.127-0.489,0.189-0.811,0.189c-0.403,0-0.725-0.125-0.961-0.377c-0.237-0.252-0.355-0.588-0.355-1.01
		c0-0.492,0.147-0.863,0.443-1.113s0.737-0.375,1.326-0.375h0.905v-0.07c0-0.331-0.098-0.586-0.293-0.768
		c-0.194-0.182-0.47-0.271-0.823-0.271c-0.225,0-0.442,0.03-0.656,0.09s-0.419,0.15-0.617,0.27v-0.664
		c0.237-0.102,0.467-0.178,0.689-0.229c0.222-0.051,0.438-0.076,0.649-0.076c0.57,0,0.996,0.164,1.277,0.492
		S476.876,32.384,476.876,33.051z M475.587,33.348c-0.522,0-0.886,0.066-1.088,0.199c-0.202,0.133-0.303,0.359-0.303,0.68
		c0,0.255,0.074,0.458,0.227,0.607s0.356,0.225,0.617,0.225c0.359,0,0.646-0.141,0.863-0.424c0.216-0.283,0.323-0.658,0.323-1.127
		v-0.16H475.587z"/>
	<path fill="#6D6E70" d="M481.481,32.906v2.641h-0.648V32.93c0-0.414-0.073-0.724-0.219-0.93c-0.146-0.206-0.363-0.309-0.652-0.309
		c-0.349,0-0.624,0.124-0.826,0.371s-0.303,0.584-0.303,1.012v2.473h-0.652v-4.375h0.652v0.68c0.153-0.263,0.335-0.459,0.545-0.59
		c0.21-0.131,0.452-0.195,0.729-0.195c0.449,0,0.792,0.156,1.024,0.467C481.365,31.845,481.481,32.302,481.481,32.906z"/>
	<path fill="#6D6E70" d="M485.001,29.715h0.715v3.543c0,0.625,0.104,1.075,0.308,1.35c0.203,0.275,0.533,0.412,0.989,0.412
		s0.785-0.137,0.988-0.412s0.305-0.725,0.305-1.35v-3.543h0.715v3.641c0,0.76-0.169,1.334-0.508,1.723
		c-0.339,0.389-0.839,0.582-1.5,0.582c-0.664,0-1.165-0.194-1.504-0.582c-0.339-0.388-0.508-0.962-0.508-1.723V29.715z"/>
	<path fill="#6D6E70" d="M493.599,32.906v2.641h-0.647V32.93c0-0.414-0.073-0.724-0.219-0.93c-0.146-0.206-0.363-0.309-0.652-0.309
		c-0.349,0-0.624,0.124-0.826,0.371s-0.303,0.584-0.303,1.012v2.473h-0.652v-4.375h0.652v0.68c0.153-0.263,0.335-0.459,0.545-0.59
		c0.21-0.131,0.452-0.195,0.729-0.195c0.45,0,0.792,0.156,1.025,0.467S493.599,32.302,493.599,32.906z"/>
	<path fill="#6D6E70" d="M494.888,29.469h0.646v0.91h-0.646V29.469z M494.888,31.172h0.646v4.375h-0.646V31.172z"/>
	<path fill="#6D6E70" d="M498.411,31.066c0.562,0,1.005,0.203,1.326,0.609c0.32,0.406,0.481,0.969,0.481,1.688
		c0,0.716-0.161,1.278-0.481,1.686c-0.321,0.408-0.765,0.611-1.326,0.611c-0.565,0-1.007-0.204-1.326-0.611
		c-0.319-0.407-0.479-0.969-0.479-1.686c0-0.719,0.158-1.281,0.479-1.688C497.405,31.268,497.846,31.066,498.411,31.066z
		 M498.411,31.676c-0.347,0-0.62,0.15-0.822,0.451c-0.202,0.301-0.303,0.713-0.303,1.236c0,0.523,0.101,0.936,0.301,1.236
		c0.2,0.3,0.477,0.451,0.824,0.451c0.347,0,0.62-0.151,0.82-0.453c0.199-0.302,0.301-0.713,0.301-1.234
		c0-0.518-0.102-0.929-0.301-1.232C499.031,31.828,498.758,31.676,498.411,31.676z"/>
	<path fill="#6D6E70" d="M504.563,32.906v2.641h-0.648V32.93c0-0.414-0.073-0.724-0.219-0.93c-0.146-0.206-0.363-0.309-0.652-0.309
		c-0.349,0-0.624,0.124-0.826,0.371s-0.303,0.584-0.303,1.012v2.473h-0.652v-4.375h0.652v0.68c0.153-0.263,0.335-0.459,0.545-0.59
		c0.21-0.131,0.452-0.195,0.729-0.195c0.449,0,0.792,0.156,1.024,0.467C504.447,31.845,504.563,32.302,504.563,32.906z"/>
</g>
</svg>
